<?xml version="1.0" standalone="no"?>
<!DOCTYPE svg PUBLIC "-//W3C//DTD SVG 20010904//EN"
 "http://www.w3.org/TR/2001/REC-SVG-20010904/DTD/svg10.dtd">
<svg version="1.0" xmlns="http://www.w3.org/2000/svg"
 width="216.000000pt" height="216.000000pt" viewBox="0 0 216.000000 216.000000"
 preserveAspectRatio="xMidYMid meet">
<metadata>
Created by potrace 1.11, written by Peter Selinger 2001-2013
</metadata>
<g transform="translate(0.000000,216.000000) scale(0.100000,-0.100000)"
fill="#000000" stroke="none">
<path d="M343 2113 c11 -90 95 -206 208 -289 28 -20 48 -39 45 -42 -13 -13
-144 98 -198 168 -15 19 -29 32 -31 30 -3 -3 4 -29 15 -58 25 -67 107 -157
199 -218 74 -49 97 -82 27 -38 -69 43 -120 84 -175 143 -48 50 -53 53 -53 31
0 -42 45 -123 89 -163 51 -46 126 -94 206 -132 33 -15 55 -30 48 -32 -28 -10
-232 112 -280 167 -34 39 -38 16 -8 -45 34 -70 104 -128 233 -191 89 -44 116
-63 70 -48 -72 21 -199 94 -250 142 -31 28 -33 25 -18 -29 19 -69 127 -149
255 -189 39 -12 69 -30 49 -30 -41 1 -198 69 -233 101 -25 24 -31 24 -31 -1 0
-52 123 -135 260 -175 60 -17 98 -35 74 -35 -46 0 -242 76 -276 107 -25 22
-24 0 2 -42 32 -52 155 -120 252 -140 56 -11 68 -16 63 -25 -3 -5 -37 0 -76
11 -70 19 -77 22 -137 54 -18 9 -35 15 -38 13 -8 -9 74 -87 112 -106 49 -25
272 -82 320 -82 l37 0 -7 38 c-14 73 -17 331 -4 424 18 136 16 164 -12 192
-14 12 -63 35 -109 49 -217 70 -421 217 -586 422 l-48 60 6 -42z"/>
<path d="M535 2120 c13 -82 87 -183 186 -256 57 -42 59 -60 2 -21 -38 26 -119
104 -149 142 -14 19 -15 18 -8 -15 7 -36 31 -80 43 -80 4 0 16 -8 27 -18 60
-56 209 -139 317 -176 138 -47 137 -47 157 -86 18 -35 19 -48 4 -117 -3 -16
-8 -101 -11 -190 l-6 -163 34 0 c19 0 41 5 49 10 9 6 10 10 3 10 -6 0 -24 5
-39 10 -37 14 -18 34 39 39 15 2 6 19 -13 24 -26 7 -26 24 0 32 17 5 20 15 21
58 0 69 7 126 25 219 16 83 12 118 -14 141 -10 8 -58 29 -108 45 -190 64 -368
192 -527 382 l-38 45 6 -35z"/>
<path d="M1426 1345 c4 -16 16 -40 27 -52 11 -13 17 -23 13 -23 -12 0 -51 22
-58 34 -13 19 -9 -33 6 -67 7 -18 24 -42 37 -54 l24 -22 62 22 61 22 -33 36
c-17 20 -47 46 -66 59 -19 13 -44 35 -57 49 l-22 26 6 -30z"/>
<path d="M1530 1348 c0 -33 31 -88 64 -113 27 -21 41 -24 89 -21 55 3 110 -3
172 -19 l30 -7 -30 30 c-20 20 -47 35 -80 42 -165 38 -180 44 -212 76 -29 28
-33 29 -33 12z"/>
<path d="M1190 1249 c0 -5 8 -9 19 -9 20 0 71 -36 71 -51 0 -5 -28 -6 -62 -4
-69 6 -69 6 49 -44 84 -37 110 -38 157 -10 l36 21 -29 29 c-16 16 -39 29 -50
29 -12 0 -40 9 -64 20 -47 22 -127 34 -127 19z"/>
<path d="M1604 1185 c-71 -15 -132 -44 -267 -127 -168 -103 -250 -122 -376
-88 -36 10 -77 21 -91 24 -14 3 -61 12 -105 21 -162 33 -264 -6 -316 -121 -41
-91 -23 -230 50 -372 29 -56 27 -68 -18 -144 -37 -59 -39 -70 -36 -124 4 -67
21 -147 36 -176 8 -15 19 -18 57 -16 36 2 46 7 43 18 -9 39 -9 151 1 184 7 23
41 67 93 120 122 125 157 216 120 312 -21 56 -11 71 12 18 22 -49 22 -139 1
-181 l-16 -32 87 5 c64 4 109 0 176 -14 88 -20 219 -24 257 -8 15 7 13 13 -12
53 -16 25 -36 76 -44 114 -18 78 -19 89 -8 89 5 0 14 -28 20 -62 17 -92 56
-163 112 -206 50 -39 71 -77 173 -314 l42 -98 43 0 44 0 -6 37 c-26 177 -130
532 -186 644 -12 22 -16 39 -10 39 6 0 23 -25 37 -56 l25 -56 33 69 c19 37 49
86 68 108 31 36 42 68 46 138 1 4 6 7 12 7 7 0 8 -11 4 -32 -24 -109 15 -217
101 -277 62 -43 114 -12 133 80 18 85 19 91 36 144 10 33 11 45 3 37 -7 -7
-16 -12 -21 -12 -5 0 9 21 32 46 41 44 78 111 67 121 -3 3 -30 -9 -60 -26 -30
-17 -57 -27 -60 -22 -3 4 7 14 22 21 l27 12 -46 42 c-26 23 -66 48 -90 56 -60
18 -172 21 -245 5z m406 -140 c0 -15 -34 -55 -46 -55 -20 0 -17 30 4 46 17 14
42 19 42 9z m-145 -164 c-3 -6 5 -19 17 -30 16 -15 18 -21 7 -21 -8 0 -20 5
-27 12 -15 15 -16 48 -1 48 5 0 8 -4 4 -9z"/>
<path d="M1152 1127 c-49 -9 -52 -12 -49 -36 4 -33 39 -39 92 -17 44 19 45 19
45 7 0 -10 -49 -28 -97 -37 -35 -7 -37 -8 -29 -39 4 -15 13 -25 24 -25 20 0
142 58 187 89 27 18 27 21 10 27 -11 4 -40 15 -64 25 -48 21 -44 21 -119 6z"/>
<path d="M2052 1027 c-22 -27 -51 -87 -42 -87 8 0 46 46 64 77 9 16 -10 25
-22 10z"/>
<path d="M237 1005 c-89 -23 -122 -74 -112 -174 13 -111 7 -155 -27 -203 l-18
-27 27 8 c82 24 128 79 139 163 4 26 11 48 16 48 18 0 -2 -93 -30 -139 -18
-29 -42 -52 -69 -65 -40 -20 -42 -23 -43 -65 0 -53 16 -109 41 -142 l19 -24 0
24 c0 28 38 111 50 111 16 0 38 77 33 116 -4 31 -2 37 8 27 22 -21 4 -143 -21
-143 -4 0 -10 -6 -13 -14 -5 -11 0 -13 25 -5 85 24 118 110 82 210 -39 109
-19 179 50 179 25 0 35 6 44 25 16 35 18 32 -35 59 -76 38 -112 45 -166 31z"/>
<path d="M803 479 c-18 -5 -35 -13 -38 -19 -8 -13 128 -309 161 -349 5 -5 85
-3 91 3 3 3 1 18 -5 33 -22 61 -109 308 -110 316 -1 4 -2 12 -2 17 0 12 -53
12 -97 -1z"/>
<path d="M1310 469 c-22 -8 -31 -26 -60 -117 -19 -59 -46 -137 -61 -174 l-27
-66 21 -4 c12 -2 35 -1 51 2 34 6 56 40 127 205 l48 109 -32 28 c-36 31 -33
30 -67 17z"/>
<path d="M950 75 c7 -8 27 -15 45 -15 20 0 35 6 39 15 4 12 -4 15 -46 15 -44
0 -49 -2 -38 -15z"/>
<path d="M1152 78 c7 -20 72 -22 88 -4 11 14 6 16 -40 16 -37 0 -50 -4 -48
-12z"/>
<path d="M495 40 c-2 -3 3 -13 10 -23 17 -23 90 -21 90 3 0 10 -14 17 -48 21
-27 3 -50 3 -52 -1z"/>
<path d="M1638 43 c-34 -4 -36 -6 -25 -24 8 -12 23 -19 44 -19 29 0 33 3 33
25 0 14 -3 24 -7 23 -5 -1 -25 -3 -45 -5z"/>
</g>
</svg>
