<svg id="レイヤー_1" data-name="レイヤー 1" xmlns="http://www.w3.org/2000/svg" viewBox="0 0 431.17 101.13"><defs><style>.cls-1{fill:#a7a5a6;}.cls-2{fill:#92d0e1;}.cls-3{fill:#b1deea;}.cls-4{fill:#64bdd4;}</style></defs><title>cybozu</title><path class="cls-1" d="M263.26,223a17.59,17.59,0,0,1,6.65,1.32l.8.34,2.29-8-.56-.26a23.9,23.9,0,0,0-8.93-1.66c-14.67,0-24.92,11.24-24.92,27.35,0,16.67,8.66,26.63,23.14,26.63a25.47,25.47,0,0,0,10.47-2l.5-.26-1.54-7.61-.84.31a18.58,18.58,0,0,1-6.81,1.32c-8.56,0-13.67-6.88-13.67-18.41C249.84,232.58,254,223,263.26,223Z" transform="translate(-73.5 -189.63)"/><path class="cls-1" d="M303.28,245.46c-.81,2.94-1.51,5.64-2.06,7.88,0-.17-.08-.35-.11-.53-.51-2.31-1.05-4.72-1.83-7.45L291,215.44H279.19L295,263.66a4.51,4.51,0,0,1,.2,1.65,5.49,5.49,0,0,1-.58,2.27,29.8,29.8,0,0,1-5.42,8.35,28.28,28.28,0,0,1-8.37,6.28l-.69.31,4.18,8.23.66-.25a33.43,33.43,0,0,0,11.27-8c7.49-8,11.69-20.83,15.35-33.26l10.28-33.79H310.61Z" transform="translate(-73.5 -189.63)"/><path class="cls-1" d="M351.88,214.58c-5.37,0-9.44,1.85-12.41,5.6V193.45H328.22v61.61c0,2.46-.19,6.14-.34,9.08-.07,1.2-.12,2.3-.16,3.15l0,.75h9.82l.53-5.59A13.15,13.15,0,0,0,350,268.89c9.63,0,19.35-8.56,19.35-27.68C369.33,225,362.48,214.58,351.88,214.58Zm6.21,27c0,7.12-1.28,19.06-9.88,19.06-2.67,0-6.3-1.48-8.43-8.56a8.13,8.13,0,0,1-.31-2.89V235a16.89,16.89,0,0,1,.24-3.48c.72-4.09,4.26-8.49,8.38-8.49C357.11,223,358.09,236,358.09,241.63Z" transform="translate(-73.5 -189.63)"/><path class="cls-1" d="M397.29,214.58c-15.68,0-21.24,14.69-21.24,27.26,0,19.94,10.64,27,20.61,27,9.74,0,21.12-7.11,21.12-27.15S407.2,214.58,397.29,214.58ZM397.16,261c-8.59,0-9.88-12.06-9.88-19.25,0-5.76.94-19.16,9.63-19.16s9.5,13.4,9.5,19.16S405.51,261,397.16,261Z" transform="translate(-73.5 -189.63)"/><path class="cls-1" d="M424.48,223.64h21.46c-.62,1-1.31,2-2,3.09s-1.61,2.41-2.38,3.64L422.18,262l-.11.16V268h36.55v-8.21H435c.61-1,1.3-2,2-3.07s1.61-2.43,2.38-3.67l19.12-31.18.09-.17v-6.3H424.48Z" transform="translate(-73.5 -189.63)"/><path class="cls-1" d="M504.64,267.29c0-1.26-.11-2.58-.18-4-.15-2.86-.32-6.11-.32-9.92V215.44H492.9v34.44a16.87,16.87,0,0,1-.5,4.51,8,8,0,0,1-8,6.18c-5.32,0-7.48-3.83-7.48-13.23v-31.9H465.69V248.5c0,13.91,5,20.39,15.68,20.39a17.87,17.87,0,0,0,12.84-5.43l.54,4.58h9.92Z" transform="translate(-73.5 -189.63)"/><path class="cls-2" d="M202.58,256.84a27.31,27.31,0,1,1-27.31-27.3A27.31,27.31,0,0,1,202.58,256.84Zm-27.33-11a11,11,0,1,0,11,11A11,11,0,0,0,175.25,245.83Z" transform="translate(-73.5 -189.63)"/><path class="cls-3" d="M226.86,209.39a16.95,16.95,0,1,1-17-16.95A16.94,16.94,0,0,1,226.86,209.39Zm-17-6.84a6.84,6.84,0,1,0,6.85,6.84A6.83,6.83,0,0,0,209.88,202.55Z" transform="translate(-73.5 -189.63)"/><path class="cls-4" d="M160.52,233.13A43.51,43.51,0,1,1,117,189.63,43.51,43.51,0,0,1,160.52,233.13ZM117,215.58a17.56,17.56,0,1,0,17.55,17.55A17.55,17.55,0,0,0,117,215.58Z" transform="translate(-73.5 -189.63)"/></svg>