<svg id="Layer_1" data-name="Layer 1" xmlns="http://www.w3.org/2000/svg" xmlns:xlink="http://www.w3.org/1999/xlink" viewBox="0 0 647.2 139.2"><defs><style>.cls-1{fill:none;}.cls-2{fill:#00a081;}.cls-3{clip-path:url(#clip-path);}.cls-4{fill:#0096de;}</style><clipPath id="clip-path" transform="translate(0 0)"><rect class="cls-1" width="647.2" height="139.16"/></clipPath></defs><title>logo-01</title><polygon class="cls-2" points="201.1 60.3 221.4 60.3 221.4 55 207.2 55 207.2 46.1 220 46.1 220 40.8 207.2 40.8 207.2 33.1 221.4 33.1 221.4 27.7 201.1 27.7 201.1 60.3"/><g class="cls-3"><path class="cls-2" d="M238.7,36.1a7.1,7.1,0,0,0-5.4,1.9V36.5h-5.6V60.3h5.7V46c0-3,1.6-4.8,4.4-4.8s4,.5,4,4.8V60.3h5.7V45.5c0-6.1-3.2-9.4-8.8-9.4" transform="translate(0 0)"/><path class="cls-2" d="M267.6,37.6a8.4,8.4,0,0,0-5.2-1.5c-6,0-9.6,4-9.6,10.7v3.1c0,6.8,3.6,10.8,9.6,10.8a8.4,8.4,0,0,0,5.2-1.5v.3c0,3.5-1.5,5-5,5s-3.7-.7-4.7-2.2l-.2-.3-4,2.9v.3c1.9,3,4.5,4.2,8.9,4.2,7.1,0,10.5-3.2,10.5-9.9v-23h-5.6Zm0,12.1c0,4-1.6,6.1-4.6,6.1s-4.6-3.8-4.6-6.1V47c0-3.9,1.6-5.9,4.6-5.9s4.6,3.2,4.6,5.9Z" transform="translate(0 0)"/><rect class="cls-2" x="279.8" y="27.7" width="6.1" height="5.75"/><rect class="cls-2" x="280" y="36.5" width="5.7" height="23.86"/><path class="cls-2" d="M304.3,36.1a7.3,7.3,0,0,0-5.4,1.9V36.5h-5.5V60.3H299V46c0-3,1.7-4.8,4.4-4.8s4.1.5,4.1,4.8V60.3h5.6V45.5c0-6.1-3.1-9.4-8.8-9.4" transform="translate(0 0)"/><path class="cls-2" d="M327.3,36.1c-6.3,0-9.8,3.8-9.8,10.7v3.1c0,6.7,4,10.8,10.5,10.8,4.3,0,7-1.2,8.6-4.1l.2-.2-4.3-3-.2.3c-.9,1.3-1.9,2.1-4.5,2.1s-4.6-3.1-4.7-5.8H337V47.1c0-7.2-3.4-11-9.7-11m0,5c2.5,0,3.7,1.4,4,4.4h-8.1c.3-3,1.7-4.4,4.1-4.4" transform="translate(0 0)"/><path class="cls-2" d="M350.8,36.1c-6.2,0-9.7,3.8-9.7,10.7v3.1c0,6.7,4,10.8,10.5,10.8,4.3,0,6.9-1.2,8.6-4.1v-.2l-4.2-3-.2.3c-.9,1.3-1.9,2.1-4.5,2.1s-4.6-3.1-4.7-5.8h13.9V47.1c0-7.2-3.4-11-9.8-11m0,5c2.5,0,3.8,1.4,4.1,4.4h-8.1c.3-3,1.6-4.4,4-4.4" transform="translate(0 0)"/><path class="cls-2" d="M376.6,36.1a6.1,6.1,0,0,0-4.8,1.8V36.5h-5.6V60.3h5.7V46c0-3,1.5-4.8,3.9-4.8a3.3,3.3,0,0,1,3,1.6l.2.3,4.5-3.2v-.3a7.5,7.5,0,0,0-6.8-3.5" transform="translate(0 0)"/><polygon class="cls-2" points="396.5 60.3 402.6 60.3 402.6 46.9 415.4 46.9 415.4 41.5 402.6 41.5 402.6 33.1 416.8 33.1 416.8 27.7 396.5 27.7 396.5 60.3"/><path class="cls-2" d="M430.3,36.1a6.1,6.1,0,0,0-4.8,1.8V36.5h-5.6V60.3h5.7V46c0-3,1.4-4.8,3.9-4.8a3.5,3.5,0,0,1,3,1.6l.2.3,4.5-3.2-.2-.3a7.3,7.3,0,0,0-6.7-3.5" transform="translate(0 0)"/><rect class="cls-2" x="439.4" y="27.7" width="6.1" height="5.75"/><rect class="cls-2" x="439.7" y="36.5" width="5.7" height="23.86"/><path class="cls-2" d="M460,36.1c-6.3,0-9.8,3.8-9.8,10.7v3.1c0,6.7,4,10.8,10.5,10.8,4.3,0,7-1.2,8.6-4.1l.2-.2-4.3-3-.2.3c-.9,1.3-1.9,2.1-4.5,2.1s-4.6-3.1-4.7-5.8h13.9V47.1c0-7.2-3.4-11-9.7-11m0,5c2.4,0,3.7,1.4,4,4.4h-8.1c.3-3,1.6-4.4,4.1-4.4" transform="translate(0 0)"/><path class="cls-2" d="M485.4,36.1A7.1,7.1,0,0,0,480,38V36.5h-5.6V60.3h5.7V46c0-3,1.6-4.8,4.4-4.8s4,.5,4,4.8V60.3h5.7V45.5c0-6.1-3.2-9.4-8.8-9.4" transform="translate(0 0)"/><path class="cls-2" d="M513.4,37.6a8.6,8.6,0,0,0-5.2-1.5c-6,0-9.6,4-9.6,10.7v3.1c0,6.8,3.6,10.8,9.6,10.8a8.6,8.6,0,0,0,5.2-1.5v1.1H519V27.7h-5.6Zm0,12.1c0,4-1.6,6.1-4.6,6.1s-4.6-3.8-4.6-6.1V47c0-3.9,1.6-5.9,4.6-5.9s4.6,2,4.6,5.6Z" transform="translate(0 0)"/><path class="cls-2" d="M530.6,51.6V27.7h-5.7v25c0,5.4,2.6,7.6,8.9,7.6h.3v-5h-.3c-2.7,0-3.2-1.2-3.2-3.7" transform="translate(0 0)"/><path class="cls-2" d="M547.2,52l-5.6-15.5h-6l9,23.8c-1.1,3.1-2.2,3.6-5.3,3.6h-.4v5.2h.4c6.6,0,8.4-2,10.5-8.1l8.3-24.5h-5.8Z" transform="translate(0 0)"/><path class="cls-2" d="M580.2,32.6c3.4,0,5.3,1.8,6.1,5.4v.3h5.9v-.4c-1.1-7-5.2-10.6-12-10.6S567.9,32.5,567.9,42v4c0,9.5,4.4,14.7,12.3,14.7s10.9-3.5,11.9-10.6v-.4h-5.9V50c-.8,3.8-2.6,5.4-6.1,5.4s-6.2-3-6.2-9.4V42c0-6.4,2-9.4,6.2-9.4" transform="translate(0 0)"/><rect class="cls-2" x="596.7" y="27.7" width="6.1" height="5.75"/><rect class="cls-2" x="597" y="36.5" width="5.7" height="23.86"/><path class="cls-2" d="M616.1,31.4h-5.7v5.1h-2.9v4.9h2.9V52.6c0,5.6,2.2,7.7,7.9,7.7H621V55.2h-2.3c-2.3,0-2.6-.9-2.6-3.5V41.4H621V36.5h-4.9Z" transform="translate(0 0)"/><path class="cls-2" d="M641.4,36.5,636.3,52l-5.6-15.5h-6l9,23.8c-1.1,3.1-2.2,3.6-5.3,3.6H628v5.2h.4c6.7,0,8.5-2,10.5-8.1l8.3-24.5Z" transform="translate(0 0)"/><polygon class="cls-4" points="201.1 117.3 207.2 117.3 207.2 103.9 220 103.9 220 98.5 207.2 98.5 207.2 90.1 221.4 90.1 221.4 84.7 201.1 84.7 201.1 117.3"/><path class="cls-4" d="M239.6,107.8c0,3.1-1.6,4.9-4.4,4.9s-4-.6-4-4.9V93.5h-5.7v14.8c0,6.1,3.1,9.4,8.8,9.4,2.6,0,4.2-.5,5.4-1.7v1.3h5.5V93.5h-5.6Z" transform="translate(0 0)"/><polygon class="cls-4" points="271.2 93.5 264.2 93.5 256.9 101.9 256.9 84.7 251.3 84.7 251.3 117.3 256.9 117.3 256.9 109.5 258.1 108.2 265.6 117.3 272.5 117.3 262 103.8 271.2 93.5"/><path class="cls-4" d="M289.1,107.8c0,3.1-1.5,4.9-4.3,4.9s-4.1-.6-4.1-4.9V93.5H275v14.8c0,6.1,3.2,9.4,8.9,9.4,2.6,0,4.1-.5,5.3-1.7v1.3h5.6V93.5h-5.7Z" transform="translate(0 0)"/><path class="cls-4" d="M310.2,93.1c-6.4,0-10.2,3.9-10.2,10.8v2.9c0,6.9,3.8,10.9,10.2,10.9s10.2-3.9,10.2-10.9v-2.9c0-6.9-3.7-10.8-10.2-10.8M305.6,104c0-2.7.8-5.9,4.6-5.9s4.6,2,4.6,5.9v2.7c0,2.3-.6,6.1-4.6,6.1s-4.6-2-4.6-6.1Z" transform="translate(0 0)"/><polygon class="cls-4" points="344.6 93.5 337.6 93.5 330.4 101.9 330.4 84.7 324.7 84.7 324.7 117.3 330.4 117.3 330.4 109.5 331.6 108.2 339.1 117.3 345.9 117.3 335.4 103.8 344.6 93.5"/><path class="cls-4" d="M356.2,93.1c-4.7,0-7.3,1.1-9,4l-.2.3,4.1,2.9.2-.4c1-1.6,2.1-1.9,4.6-1.9s4.2.7,4.2,3.4V103h-4.6c-5.8,0-9,2.5-9,7.2s3.2,7.5,8.6,7.5c2.4,0,3.9-.5,5-1.8v1.4h5.6V101.4c0-5.8-2.8-8.3-9.5-8.3m3.9,14.4v.7c0,3.9-1.6,4.6-4.4,4.6s-3.6-.9-3.6-2.6.4-2.7,3.7-2.7Z" transform="translate(0 0)"/><polygon class="cls-4" points="54.3 108.9 54.3 99.6 13.2 70.8 54.3 41.9 54.3 32.6 0 70.8 54.3 108.9"/><polygon class="cls-4" points="113.3 108.9 113.3 99.6 154.4 70.8 113.3 41.9 113.3 32.6 167.6 70.8 113.3 108.9"/><polygon class="cls-2" points="55.4 139.2 63.9 139.2 114.1 0 105.6 0 55.4 139.2"/></g></svg>