<svg xmlns="http://www.w3.org/2000/svg" viewBox="0 0 83.6 26.24"><defs><style>.cls-1{fill:#0459a1;}</style></defs><g id="レイヤー_2" data-name="レイヤー 2"><g id="レイヤー_2-2" data-name="レイヤー 2"><path class="cls-1" d="M5.12,0h4.5l4.64,21.6L18.46,0h3.42L16.77,26.24h-4.5L7.63,4.64,3.41,26.24H0Z"/><path class="cls-1" d="M33,0h4.33l2.91,26.24H36.72l-.61-6.83H27l-3.23,6.83H19.92ZM34.7,3,28.3,16.56h7.56Z"/><path class="cls-1" d="M47.71,0h3.51l3.94,9.35L62.89,0H67L56.48,12.64l5.69,13.6H58.64L54.18,15.49l-8.9,10.75H41.22l11.55-14Z"/><path class="cls-1" d="M76.36,0h4.32L83.6,26.24H80.07l-.62-6.83H70.31l-3.23,6.83H63.26Zm1.69,3-6.4,13.61h7.56Z"/></g></g></svg>