<?xml version="1.0" encoding="utf-8"?>
<!-- Generator: Adobe Illustrator 24.3.0, SVG Export Plug-In . SVG Version: 6.00 Build 0)  -->
<svg version="1.1" id="レイヤー_1" xmlns="http://www.w3.org/2000/svg" xmlns:xlink="http://www.w3.org/1999/xlink" x="0px"
	 y="0px" viewBox="0 0 1976.1 607.7" style="enable-background:new 0 0 1976.1 607.7;" xml:space="preserve">
<style type="text/css">
	.st0{fill:#FFF9DD;}
	.st1{fill:#4D688E;}
	.st2{fill:#FFF6D7;}
	.st3{fill:#4E4E4E;}
	.st4{fill:#FFF9DE;}
</style>
<g id="レイヤー_2_1_">
	<g id="レイヤー_1-2">
		<path class="st0" d="M1569.5,0.9c6.5,0.6,12.9-1.4,19.4-0.8c10.8,2,22.6,2.6,31.8,8.7c3,2.1,6.6,3.1,10.2,3.9
			c1.3,2.1,2.5,4.4,2.6,6.9c-13.8-8.6-29.9-15-46.9-15.2c-16.3,0-33.1-0.6-48.7,4.5c-7.8,2.5-15.4,6-22.4,10.3c0.2-1.4-0.2-3,1-4.2
			C1530.9,3.8,1550.9,0.6,1569.5,0.9z"/>
		<path class="st1" d="M1537.9,9c15.6-5.1,32.4-4.5,48.7-4.5c17,0.2,33.1,6.6,46.9,15.2c12.4,7.6,20.2,19.4,28,30.6
			c66.8,94.6,132.7,189.6,198.9,284.5c2.6,3.8,5.5,7.4,7.4,11.5l-5.1-0.4c-8.8-13.5-18.2-26.8-28-39.8c-3.2-5.5-6.7-10.9-10.2-16.2
			c-4.5-8.5-11.1-15.8-16.4-23.9c-7.2-9-12.9-18.8-19.7-28.1c-4.6-6.6-10.5-12.4-14.4-19.4c-7.3-12.5-17.5-23.3-24.9-35.6
			c-2.5-4.1-5.2-8.1-8.1-12c-3.5-4.7-5.5-10.2-10.1-14.3c-2.7-2.4-4.9-5.3-6.2-8.7c-2.1-5.7-7.2-9.7-10.6-14.7
			c-3.4-4.8-6.8-9.6-10.4-14.2c-4.1-5.3-5.6-12-10.2-17c-4.4-5-8.8-10-12-15.8c-4.3-8.1-9.4-15.7-15.2-22.8c-4.6-5.5-8-11.7-12.9-17
			c-3.9-4.1-6.1-9.2-10.1-13.1c-4.6-4.4-9.1-9.1-15.2-11.8c-5.8-2.5-10.3-7-16.5-8.6c-8.2-2-16.4-4.4-25-4.3
			c-17.7-0.1-36.4-1.5-52.9,5.5c-11.8,5.4-23.1,12.1-31.9,21.1c-5.2,5.1-8.6,11.3-12.6,17.1c-4.8,7.1-9.6,14.2-15.2,20.8
			c-5.9,6.9-9,15.3-14.9,22.2c-4.4,4.9-8.4,10.1-12,15.6c-4.9,7.7-11.8,14.2-16.2,22.1c-3.5,6.4-8.2,12.1-13.1,17.6
			c-0.1-0.5-0.2-1.5-0.3-2.1c0-0.3,0-1,0-1.4c25.1-35.6,50.3-71.1,75.6-106.6c5.9-8.7,13.5-16,22.5-21.4
			C1522.5,15,1530,11.5,1537.9,9z"/>
		<path class="st1" d="M1533.6,14.2c16.5-7,35.2-5.6,52.9-5.5c8.6-0.1,16.8,2.3,25,4.3c6.3,1.5,10.8,6.1,16.5,8.6
			c6.1,2.7,10.6,7.4,15.2,11.8c4.1,3.9,6.3,9,10.1,13.1c4.9,5.3,8.3,11.5,12.9,17c5.8,7.1,10.9,14.8,15.2,22.9
			c3.1,5.8,7.5,10.8,12,15.8c4.6,5.1,6.1,11.7,10.2,17c3.6,4.7,7,9.4,10.4,14.2c3.4,5,8.5,9,10.6,14.7c1.3,3.4,3.5,6.4,6.2,8.7
			c4.5,4,6.6,9.6,10.1,14.3c2.9,3.9,5.5,7.9,8.1,12c7.4,12.4,17.7,23.2,24.9,35.6c3.9,7,9.8,12.8,14.4,19.4
			c6.7,9.2,12.5,19.1,19.7,28.1c5.3,8.1,11.9,15.4,16.4,23.9c3.5,5.4,6.9,10.7,10.2,16.2c9.8,13,19.2,26.2,28,39.8l5.1,0.4l1.5,0.1
			c-0.1,0.5-0.4,1.4-0.5,1.8c-0.6,2.8-2.8,6.2,0,8.6c16.1,16.9,25.6,37.6,39.8,55.7c2.6,3.3,4.9,7.1,9.3,8.5l0.1,0.1l0,0
			c1.5,10.4,10.8,17.6,15.7,26.7c4.3,8.1,11,14.8,15.4,22.9c2.7,5,9.3,9,8,15.1c-2.2,0.6-4.5,0.9-6.9,0.8
			c-19.6,0.5-39.1,0.5-58.7,0.2c-16.9-1-33.9-0.5-50.8-0.7c-2.8-0.2-6.3,0.3-8.2-2c-6.3-6.8-11-14.7-16-22.3
			c-6.2-9.8-14.5-18.4-20.9-28.1c-2.9-4-4.5-8.6-7.7-12.4c-1.3-1.6-3.8-1.2-5.6-1.7l-0.3-0.4c0.3-2.2,1.6-4.6,0-6.7
			c-3.8-6.2-9.1-11.7-12.6-18.1c-3.6-5.7-6.2-12.5-12.3-16.4c-7.7-4.6-17.3-2.8-25.9-2.8c-109.9,0.2-219.9,0-329.8,0.1
			c-4.7,0-9.4-0.4-14,0.3c-2.2,2.8-2.3,6.4-4.6,9c-3.1,3.2-7.8,5.1-10,9c-2.4,4.3-4.4,8.8-7.5,12.7c-6.7,8.5-11.1,18.3-17.6,26.9
			c-3,4.1-7,7.5-9.5,11.9c-1.9,3.2-3.3,6.9-6.5,9.3c-3.1,2.6-7.4,4.4-8.8,8.3c-2.5,6.4-5.7,12.8-11,17.7c-2.5,2.4-6.5,2.1-9.8,2.3
			c-30.5-0.1-61,0-91.5,0c-7.7-0.1-15.5,0.8-22.9-1.2c1.4-3.9,4.3-7,7.4-9.8c2.7-2.3,2.4-5.9,3.7-8.8c2-2.5,5-4.4,7.2-6.8
			c3.7-3.7,5.8-8.4,8.3-12.9c3.7-6.6,9.2-12.1,13.7-18.2c3.8-4.9,6.5-10.3,9.9-15.4c1.5-2.4,2.6-5,3.4-7.7
			c7.8-11.6,16.5-22.8,24.6-34.2c6.3-8.6,12.2-17.4,18.9-25.7c8-9.9,12.5-22,22.3-30.7c3-3,7.9-2.2,11.9-2.3
			c10.9,0.5,21.8-1.1,32.7-0.5c10.2,0.6,20.3-0.3,30.5,0c32.7-0.4,65.5,0.5,98.2,0.1c21.8,0.8,43.7-0.3,65.5-0.3
			c14.3-0.1,28.7,1,43,0.5c24.8-0.9,49.7-0.3,74.5-0.2c14.4-0.4,28.8,1.2,43.2,0.5c0.1-1.3,0.2-2.5,0.3-3.8c0-0.2,0-0.7,0-1
			c0.7-5.7-3.4-10-7-14.1c-5.2-5.8-5.4-14-11.3-19.4c-6.2-5.7-9-13.4-14.1-19.8c-3.1-3.7-5.8-7.8-8-12.1c-2.8-6.2-9.9-9.7-12.5-16
			c-2.7-6.6-7.6-12.1-11.7-18c-3.3-4.8-7.7-8.9-10.5-13.9c-3.2-5.5-6-11.2-10.3-16.1c-5.8-6.6-8.8-14.8-15-21.1
			c-8-8.1-11.9-18.7-19.8-26.9c-4.3-4.3-4.7-10.9-9.8-14.6c-2.8-2.2-7-1.2-9.3,1.1c-6.2,5.7-8.2,13.9-14.3,19.6
			c-4.8,4.4-7.4,10.2-11.5,15.1c-4.4,5.2-5.7,11.9-10.4,16.9c-1.5,0.8-3.1,1.5-4.6,2.2c-0.7,2.3-1.6,4.6-2.8,6.7
			c-2.1,2.8-5.4,4.8-6.5,8.1c-1.2,2.2-1.5,5.5-4.6,6.2c-5,1.1-10.1,0.7-15.2,0.8c-30.1,0-60.2-0.1-90.3,0.1c-3.7,0-7.4-0.2-11.1-0.5
			c4.1-11.4,14.6-19.5,20.7-30c1.5-2.4,1.9-5.3,1.2-8.1c4.8-5.6,9.6-11.3,13.1-17.6c4.4-7.9,11.3-14.4,16.2-22.1
			c3.6-5.5,7.6-10.7,12-15.6c5.9-6.9,9-15.3,14.9-22.2c5.5-6.6,10.3-13.7,15.2-20.8c4-5.8,7.5-12,12.6-17.1
			C1510.5,26.3,1521.8,19.6,1533.6,14.2z"/>
		<path class="st1" d="M565.8,17.2c38.1-0.5,76.2,0.3,114.3-0.3c2,6.4,0.9,13,1.2,19.6c0.2,68.5-0.4,137,0.3,205.5l3.2-0.8
			c9.2-1.6,14.9-8.8,22.1-13.4c6.1-3.9,10.4-9.7,16.2-13.9c4.2-3.1,8.5-6,13-8.6c4.2-2.6,6.6-6.9,10.4-10s8.2-5.4,12.3-8.2
			c7.1-4.8,12.8-11,19.6-16c9.1-6.3,17.2-13.6,25.7-20.5c3.8-2.7,8.1-4.8,11.2-8.3c3.9-4.3,9.4-7.1,13.4-11.3
			c3.8-4.2,9.9-5.9,13.6-10.1c5.4-5.8,13.2-9,18.8-14.6c3.9-4,8.1-7.7,12.6-11.1c5.9-4.6,12.7-8.1,18.1-13.2
			c4.4-4.1,9.5-7.7,14-11.8c5.7-5.1,12.4-9.2,18.4-14c5.4-4.2,10.2-9.2,15.8-13.2c4.4-3.2,9.4-5.6,13.4-9.3
			c4.8-4.4,9.5-9.1,15.3-12.5c2.7-1.6,6-1.6,9.1-1.6c22.2,0.4,44.4,0.1,66.6,0c17.7,0.1,35.4,0.4,53.1,0.2
			c5.8-0.3,11.7-0.1,17.5,0.4c-1,4.7-6.3,6.1-10.2,8.4c-4.7,2.5-7.2,7-11.2,10.1c-5.7,4.5-12.6,7.7-18.3,12.1
			c-3.6,2.8-6.6,6.2-10.2,9c-5,4-10.9,7.1-16.2,10.8c-4.3,3-6.9,7.3-11.1,10.3c-4.8,3.5-10.2,6.3-14.8,10.1
			c-13.7,11.1-28.2,21.3-41.7,32.7c-6.5,5-13.5,9.5-20,14.5c-4.5,3.4-8.2,7.6-13,10.8s-9,6.8-13.4,10.2c-4.8,3.9-11,6.2-15.6,10.4
			c-6.8,6.2-14.1,11.9-21.7,17.2c-9.2,6.2-16.4,14.6-26.2,20.1c-6.2,3.4-10.4,9-16.1,13c-5.5,3.8-10.5,8.2-16.3,11.8
			c-4.7,3-9.3,6.3-13.6,9.9c1,2,2,4.1,2.8,6.2l0.1,0.5c0.3,1.9,0.8,3.8,1.4,5.6c2,2.3,4.8,3.8,7.2,5.8c3.6,2.9,5.9,6.9,10,9.3
			c3.2,1.9,6.9,3.1,10,5.2c5.7,3.6,10.1,8.6,14.8,13.2c4.2,4.1,9.8,6.7,14.1,10.6c9.3,8.3,19.6,15.6,29.5,23.2
			c4.9,3.7,10,7.2,14.2,11.6c4.6,5.1,11.6,7.8,16.4,12.8c9,6.8,17.8,13.8,27,20.4c3.3,2.4,5.9,5.5,8.8,8.3c3.3,3.3,7.9,5,11.6,7.8
			c3.9,3,5.7,7.7,10,10.2c4.5,2.7,9.2,5.2,13.2,8.6c5.4,4.6,11.1,8.9,16.4,13.7c4.3,3.9,10.1,6.4,14.1,10.6
			c6.8,7.1,16.4,11.5,23.1,18.8c4.6,5.2,11.6,7.9,17,12.2c7.3,5.6,13.3,12.5,21.2,17.5c5.4,3.8,11.7,7.4,14.2,13.5
			c-6.1,0.4-12.3,0.2-18.4,0.1c-41,0.1-82.1,0.1-123.1,0c-2.9,0.2-5.7-0.8-7.8-2.7c-7.6-6.5-15.5-12.6-23.7-18.5
			c-4.9-3.4-8.1-8.5-13.8-10.9c-6-2.5-8.7-8.5-14.1-11.6c-4.5-2.7-7.5-6.9-12-9.7c-4.6-2.9-8.3-6.8-12.8-9.8
			c-5.2-3.4-8.6-8.6-14.1-11.7c-7.5-4.3-13.8-10.1-20.8-14.9c-4.2-2.9-7-7.2-11.3-10c-3.1-1.9-6-4-8.8-6.3c-5.2-4.5-11.3-8.1-16-13
			c-6.2-6.4-13.8-11.4-21.3-16.4c-7.8-5.4-14.1-12.5-22.1-17.7c-7.8-4.1-12.8-10.9-19.4-16.2c-7-5.6-16-9.1-21.4-16.3
			c-3.2-4.4-9.2-5.9-13.2-9.4c-4.6-4-9.1-8.1-13.3-12.4c-3.9-4.1-10-5.7-13.8-9.9c-4.1-4.4-9.8-7.2-15.8-9c-1.3-0.4-2.6-0.8-3.9-1.2
			c-0.9,76.3,0,152.6-0.4,228.9c-3.5,0.7-7,1-10.5,1.1c-30.1-0.1-60.3-0.1-90.4,0c-5-0.1-9.9-0.5-14.8-1.2
			C565.6,331.5,565.1,174.3,565.8,17.2z"/>
		<path class="st2" d="M1099.8,13.9c9.6-0.5,19.9-2,28.7,2.3c-0.1,2.8,0.7,6-1.3,8.4c-3.3,2.6-8.3,3-11.1,6.3
			c-5.8,5.9-12.6,10.8-20,14.5c-4.3,1.8-5.4,6.6-9.4,8.7c-4.4,2.3-9.2,4.4-12.2,8.3c-3.2,4.7-10.1,6-12.5,11.3l-3.6,0.3
			c-5.5,5.4-12.7,9.3-17.3,15.3c-2.4,3.4-7.6,2.9-10.4,5.9c-3.9,4-8.6,7.2-12.6,11.1c-2.4,2.2-4,5.3-7.3,6.6
			c-10.8,3.7-18.4,12-25.6,19.8c-7.9,4.1-15.9,8.6-21.7,15.1c-2.3,2.7-6.5,3.1-9.8,2c57.2-44.6,115.5-88.2,173-132.6
			c-13.5-0.8-27-0.3-40.4-0.3c-38,0-76-0.3-114.1,0.1c-2.2,0-4.6,0.2-6.2,1.7c-35.9,28-71.5,56.3-107.2,84.4
			C820,133.2,782,164,743.1,194l-1.2-0.9c5.1-6.6,13.9-9.8,19-16.3c3.8-4.9,8.5-9,13.8-12.1c5.2-2.6,9.2-6.5,13.9-9.6
			c3.3-3.2,5.8-7.2,10-9.5c0.2-0.6,0.5-1.8,0.6-2.4c8.4-2.1,13.6-8.7,19.6-13.8c3-2.8,7.6-3.9,10-7.3c1.2-1.6,2.7-2.9,4.4-4
			c5.5-3.5,9.3-8.7,15-11.9c2.8-1.6,6.3-2.2,8.8-4.3c3.8-3,6.3-7.2,10.5-9.9c10.7-7.1,20.8-14.9,30.2-23.6c5-4.8,12.3-7.2,16.6-12.6
			c5.7-7.5,14.5-12.3,22.7-17.3c5.6-3.4,7.8-9.8,13.4-13.3c4.7-3.1,9.1-6.8,13-10.9c27.3-0.6,54.7-0.4,82-0.1
			C1063.6,14.1,1081.7,13.8,1099.8,13.9z"/>
		<path class="st3" d="M1201.1,15.9c58.3-0.8,116.7-0.9,175-0.5c16.9-0.8,33.9-0.4,50.8-0.2c18.2,1.2,36.4,0.3,54.6,0.9
			c-10.8,15.9-22.8,31.1-33.9,46.8c-10.2,14.1-20.3,28.2-30.6,42.1c-62.8-0.3-125.5-0.7-188.3-1c-14,0-28.3,4.8-37.8,14.3
			c-4.2,4.2-4.9,10.1-6.5,15.3c-4,16.5-4.5,33.9,0.4,50.3c4.5,12.8,18.2,22.9,33.3,23.2c84.3,0.7,168.7,0.8,253,1.5
			c29.1,1.3,58.2,3.2,86.9,7.7c20.2,3.6,39.1,13,52.9,26.8c13.7,14,23.4,31.8,24.1,50.7c-118.4-0.9-236.8-1.4-355.2-2
			c-24.4-0.3-48.9,0-73.3-0.6c-15.8-0.3-31.5-2-47-5c-20.4-3.4-40.2-11.8-54.5-25.5c-8-7.3-15.7-15.4-19.4-25.3
			c-9.3-26.1-12.9-53.9-10.6-81.5c-0.1-15-0.4-30.1,2.9-44.8c3.3-15.3,8-30.5,15.7-44.5c1.7-3.5,3.9-6.7,6.4-9.6
			c18.9-21,47.2-34.5,76.9-38.1C1184.8,15.9,1193,16,1201.1,15.9z"/>
		<path class="st3" d="M1053.8,398.2c33,0.1,66,0.2,99,0.1c21.5-0.1,42.9,0.5,64.4,0.1c-0.3,1.3-0.7,2.7-1.2,3.9
			c-18.1,25.4-36,50.9-53.9,76.4c-2.1,2.8-3.7,6.2-7,8.1c-1.7-0.8-2.8-2.2-4.2-3.3c-17.9-16.4-36.9-31.8-55-48.1
			c-12.1-11.1-25-21.5-37.5-32.4C1056.8,401.6,1055.2,400,1053.8,398.2z"/>
		<path class="st3" d="M1395.6,399.6c7.9-1.1,15.9-0.8,23.8-0.8c72.6-0.5,145.2-0.2,217.9-0.9c-0.6,16.7-7.7,32.6-17.5,46.6
			c-10.3,14-26.6,23.1-43.2,30c-10.9,4.8-22.4,8.3-34.2,10.1c-24.2,3.9-48.9,2.3-73.4,3.2c-16.5,1.1-33,0.4-49.5,0.7
			c-27-0.1-54.1,0.2-81.1-0.2c1.4-4.2,4.7-7.5,7-11.3c9.2-14.7,19.3-28.8,28.5-43.5c5.6-8.8,11.2-17.6,17.3-26.2
			C1392.7,404.9,1394.3,402.3,1395.6,399.6z"/>
		<path class="st4" d="M684.3,16.7c2.1,2.8,3.3,6.1,3.4,9.5c-0.6,4.5-2.3,8.8-2,13.3c-0.2,46.4,0.1,92.9,0,139.3
			c0.1,11.2-1,22.5,0.2,33.7c0.2,2.1,1.3,4.1,2.1,6c-2.2,4.2-3.6,9.7,0.5,13.4c4-1.8,7.8-4.8,7.3-9.2c3.2-1,6.7-1.7,9.3-3.8
			c2.9-2.5,5.1-5.5,7.9-8.1c4.9-4.4,11-7.6,16.5-11.5c3.2-2.2,5.7-5.3,9.3-6.9c1.1-0.9,2.3,0.1,3.1,0.7l1.2,0.9
			c-18.2,14.6-36.8,28.8-54.8,43.6c-1.6-1.6-4-2.8-4.4-5c-0.8-4.4-0.3-8.8-0.3-13.2c0.2-65.1-0.1-130.1,0.2-195.1
			C683.7,21.8,684,19.2,684.3,16.7z"/>
		<path class="st1" d="M965.9,18.7c1.7-1.5,4-1.8,6.2-1.7c38-0.4,76-0.1,114.1-0.1c13.5,0.1,27-0.4,40.4,0.3
			c-57.4,44.4-115.7,87.9-173,132.6c-20.6,15.7-41,31.8-62,47.1c-7,6-14.3,11.6-21.8,17c-7.3,5.2-14.1,11.1-21.3,16.4
			c-5.9,4.5-12,8.8-17.8,13.5c-1.5,1-1.9,2.7-2.5,4.2c-0.8-2.1-1.8-4.1-2.8-6.2c4.3-3.6,8.8-6.9,13.6-9.9
			c5.8-3.5,10.8-7.9,16.3-11.8c5.7-4,9.9-9.6,16.1-13c9.8-5.5,17-13.9,26.2-20.1c7.6-5.2,14.9-10.9,21.7-17.1
			c4.6-4.2,10.7-6.5,15.6-10.4c4.4-3.5,8.7-7.1,13.4-10.2s8.5-7.4,13-10.8c6.5-5,13.5-9.5,20-14.5c13.4-11.4,28-21.6,41.7-32.7
			c4.6-3.8,10-6.6,14.8-10.1c4.2-3,6.8-7.4,11.1-10.3c5.3-3.7,11.1-6.8,16.2-10.8c3.6-2.8,6.6-6.2,10.2-9
			c5.7-4.5,12.6-7.6,18.3-12.1c4-3.1,6.6-7.7,11.2-10.1c3.9-2.3,9.2-3.7,10.2-8.4c-5.8-0.5-11.6-0.7-17.5-0.4
			c-17.7,0.2-35.4-0.1-53.1-0.2c-22.2,0.1-44.4,0.3-66.6,0c-3.1,0-6.4,0-9.1,1.6c-5.8,3.4-10.5,8.1-15.3,12.5c-4,3.7-9,6.1-13.4,9.3
			c-5.6,4-10.3,9-15.8,13.2c-6,4.8-12.7,8.9-18.4,14c-4.5,4.1-9.5,7.6-14,11.8c-5.5,5-12.2,8.6-18.1,13.2
			c-4.4,3.4-8.6,7.1-12.6,11.1c-5.6,5.5-13.4,8.8-18.8,14.6c-3.8,4.2-9.8,6-13.6,10.1c-4,4.2-9.5,6.9-13.4,11.3
			c-3.1,3.4-7.4,5.6-11.2,8.3c-8.5,6.9-16.6,14.2-25.7,20.5c-6.8,5-12.5,11.2-19.6,16c-4,2.8-8.5,5.1-12.3,8.2s-6.2,7.4-10.4,10
			c-4.5,2.6-8.8,5.5-13,8.6c-5.9,4.2-10.1,10-16.2,13.9c-7.2,4.7-12.9,11.9-22.1,13.4c1.1-1.2,2.2-2.4,3.4-3.6
			c18-14.8,36.7-29,54.8-43.6c38.9-30,76.9-60.9,115.6-91C894.5,74.9,930,46.6,965.9,18.7z"/>
		<path class="st1" d="M1567.2,113.7c2.3-2.3,6.6-3.3,9.3-1.1c5.1,3.7,5.5,10.3,9.8,14.6c7.9,8.2,11.9,18.7,19.8,26.9
			c6.2,6.3,9.2,14.5,15,21.1c4.3,4.9,7.1,10.6,10.3,16.1c2.9,5,7.2,9.1,10.5,13.9c4.2,5.9,9,11.4,11.7,18c2.6,6.3,9.8,9.8,12.5,16
			c2.2,4.4,4.9,8.4,8,12.1c5.1,6.4,7.9,14.1,14.1,19.8c5.9,5.4,6.1,13.6,11.3,19.4c3.6,4.1,7.8,8.4,7,14.1
			c-5.7-5.9-9.6-12.8-14.1-19.4c-22.6-32.7-45.5-65.2-68.1-97.8c-8.5-12.2-16.7-24.5-25.7-36.3c-1.9-2.4-3.6-5-5.3-7.6
			c-6.4-10.2-13.6-19.9-20.4-29.8c-2.6,2.1-4.9,4.6-6.8,7.4c-11.4,16.6-23.7,32.8-34.9,49.6c-0.2-1.8-0.3-3.6-0.5-5.5
			c4.7-5,6-11.7,10.4-16.9c4.2-4.8,6.7-10.7,11.5-15.1C1559,127.5,1561,119.3,1567.2,113.7z"/>
		<path class="st1" d="M1410.7,156.8c2.2-2.7,3.3-6.2,6.6-8.1c0.1,0.5,0.3,1.5,0.3,2.1c0.7,2.7,0.3,5.7-1.2,8.1
			c-6,10.4-16.5,18.6-20.7,30c3.7,0.2,7.4,0.5,11.1,0.5c30.1-0.1,60.2-0.1,90.3-0.1c5-0.1,10.2,0.3,15.2-0.8c3.1-0.7,3.4-4,4.6-6.2
			c1.1-3.4,4.4-5.4,6.5-8.1c1.1-2.1,2.1-4.4,2.8-6.7c1.5-0.7,3.1-1.4,4.6-2.2c0.2,1.8,0.3,3.6,0.5,5.5l-0.6,0.9
			c-5.2,7.4-10.2,15-15.4,22.4c-43.8-0.1-87.5,0.3-131.3-0.2c3.6-3.4,5.4-7.8,8.4-11.6C1398.9,173.8,1404.4,165.1,1410.7,156.8z"/>
		<path class="st1" d="M1868.7,356.8c-2.8-2.4-0.6-5.8,0-8.6c7,7.1,11.3,15.9,17.1,23.8c10.7,14.5,20.2,29.7,30.9,44.2
			c1,1.4,1,3.1,1.2,4.8c-4.5-1.4-6.8-5.3-9.3-8.5C1894.4,394.5,1884.8,373.7,1868.7,356.8z"/>
		<path class="st1" d="M828.5,248.4c15.8,10.9,30,23.7,45.6,34.9c8.1,5.6,14.7,12.6,22.8,18.2c35.5,28.4,71.7,56,107.1,84.5
			c15.5,12.2,31,24.4,46.5,36.6c13.7,11,28,21.4,41.4,32.6c14.5,11.6,29.7,22.5,43.5,34.8c-34.1,0.7-68.2,0.1-102.2,0.3
			c-19.9-0.2-39.8,0.4-59.6-0.3c-31.1-24.7-62.4-49.1-93.5-73.7c-22.9-18.4-46.2-36.3-69.1-54.7c-13.2-9.8-25.6-20.4-38.6-30.4
			c-28.8-23-58.1-45.5-86.8-68.6c0-0.4,0.1-1.1,0.2-1.5c6,1.8,11.8,4.6,15.8,9c3.8,4.2,9.9,5.8,13.8,9.9c4.3,4.3,8.7,8.4,13.3,12.4
			c4.1,3.5,10,5,13.2,9.4c5.4,7.1,14.4,10.7,21.4,16.3c6.6,5.3,11.7,12,19.4,16.2c8,5.2,14.2,12.3,22.1,17.7
			c7.5,5,15.1,10,21.3,16.4c4.7,5,10.8,8.5,16,13c2.8,2.3,5.8,4.4,8.8,6.3c4.3,2.8,7.1,7.1,11.3,10c7,4.9,13.3,10.6,20.8,14.9
			c5.5,3.1,8.9,8.3,14.1,11.7c4.5,3,8.2,6.9,12.8,9.8c4.4,2.8,7.5,7,12,9.7c5.5,3.1,8.1,9.1,14.1,11.6c5.7,2.4,8.9,7.5,13.8,10.9
			c8.2,5.8,16.1,12,23.7,18.5c2.1,1.9,4.9,2.9,7.8,2.7c41,0,82.1,0,123.1,0c6.1,0.1,12.3,0.3,18.4-0.1c-2.5-6-8.9-9.6-14.2-13.5
			c-7.9-5-13.9-11.9-21.2-17.5c-5.4-4.4-12.4-7-17-12.2c-6.7-7.3-16.2-11.7-23.1-18.8c-4-4.2-9.8-6.7-14.1-10.6
			c-5.3-4.7-11-9-16.4-13.7c-3.9-3.4-8.7-5.9-13.2-8.6c-4.4-2.5-6.2-7.2-10-10.2c-3.7-2.8-8.3-4.6-11.6-7.8
			c-2.8-2.9-5.4-5.9-8.8-8.3c-9.2-6.6-18-13.6-27-20.4c-4.8-5-11.7-7.7-16.4-12.8c-4.2-4.4-9.3-7.9-14.2-11.6
			c-10-7.6-20.3-14.9-29.5-23.2c-4.3-3.9-10-6.5-14.1-10.6c-4.7-4.6-9.1-9.5-14.8-13.2c-3.1-2-6.8-3.3-10-5.2
			c-4.1-2.4-6.4-6.4-10-9.3c-2.3-2-5.2-3.5-7.2-5.8C829.3,252.2,828.8,250.3,828.5,248.4z"/>
		<path class="st1" d="M1303.6,308.3c1.5-2.3,4.8-2,7.3-2.1c114.9,0,229.7,0,344.6,0c17.1,0,34.2,0.1,51.3-0.8
			c-0.1,1.3-0.2,2.5-0.3,3.8c-14.4,0.7-28.8-0.9-43.2-0.5c-24.8-0.1-49.7-0.8-74.5,0.2c-14.3,0.5-28.7-0.6-43-0.5
			c-21.8,0.1-43.7,1.1-65.5,0.3c-32.7,0.4-65.5-0.5-98.2-0.1c-10.2-0.3-20.3,0.6-30.5,0c-10.9-0.6-21.8,1.1-32.7,0.5
			c-4,0-8.9-0.8-11.9,2.3c-9.9,8.7-14.4,20.8-22.3,30.7c-6.7,8.3-12.6,17.1-18.9,25.7c-8.1,11.5-16.8,22.6-24.6,34.2
			c-6.9,6.3-10.2,14.9-15.7,22.1c-4.8,6.4-9.6,12.8-14.6,19.1c-0.3-0.6-0.8-1.8-1.1-2.3c6.9-11.3,15-22,22.8-32.8
			c4.3-6.8,9.9-12.9,13.8-19.9c1.4-2.7,3.9-4.9,5.4-7.5c2.8-4.8,7.4-8.6,9.6-13.7c1.8-1.8,3.4-3.9,4.9-6c3.1-4.3,5.7-8.8,8.9-13
			C1285,335,1293.6,321.2,1303.6,308.3z"/>
		<path class="st1" d="M1387.3,375.7c4.6-0.6,9.3-0.2,14-0.3c109.9-0.1,219.8,0.1,329.8-0.1c8.6,0,18.3-1.8,25.9,2.8
			c6.1,4,8.7,10.7,12.3,16.4c3.6,6.4,8.8,11.8,12.6,18.1c1.6,2,0.3,4.5,0,6.7c-9.5-12.9-18.4-26.1-27.7-39.1
			c-78.5-0.8-157.1-0.2-235.6-0.3c-42.8,0.2-85.5-0.5-128.3,0.2c-6.3,9.2-13.3,18.1-19.5,27.4c-18.7,26.8-37.9,53.3-57.1,79.8
			c-45.3,0.4-90.5,0.2-135.8,0.1c0.6-4,3.3-7.2,5.6-10.5c6.2-9,12.6-17.9,19.1-26.7c2.3-3.1,3.9-6.8,7-9.4c0.3,0.6,0.8,1.8,1.1,2.3
			c5-6.3,9.9-12.7,14.6-19.1c5.5-7.2,8.8-15.8,15.7-22.1c-0.7,2.7-1.9,5.3-3.4,7.7c-3.4,5.1-6.1,10.5-9.9,15.4
			c-4.5,6.1-10.1,11.6-13.7,18.2c-2.5,4.4-4.6,9.1-8.3,12.9c-2.2,2.4-5.2,4.2-7.2,6.8c-1.3,2.9-1.1,6.5-3.7,8.8
			c-3.2,2.8-6,6-7.4,9.8c7.4,2,15.2,1.2,22.9,1.2c30.5-0.1,61-0.1,91.5,0c3.3-0.2,7.3,0.1,9.8-2.3c5.3-4.9,8.6-11.3,11-17.7
			c1.4-3.9,5.7-5.6,8.8-8.3c3.2-2.5,4.5-6.1,6.5-9.3c2.5-4.4,6.5-7.8,9.5-11.9c6.5-8.6,10.9-18.4,17.6-26.9
			c3.1-3.9,5.2-8.4,7.5-12.7c2.2-3.9,6.9-5.8,10-9C1385,382.1,1385.2,378.4,1387.3,375.7z"/>
		<path class="st1" d="M1782.3,419.7c1.8,0.5,4.3,0.1,5.6,1.7c3.2,3.8,4.8,8.4,7.7,12.4c6.4,9.7,14.7,18.3,20.9,28.1
			c5,7.6,9.7,15.5,16,22.3c1.8,2.4,5.4,1.8,8.2,2c16.9,0.2,33.9-0.3,50.8,0.7c19.6,0.3,39.1,0.3,58.7-0.2c2.3,0,4.6-0.2,6.9-0.8
			c1.3-6.1-5.3-10.1-8-15.1c-4.4-8-11.1-14.8-15.4-22.9c-4.9-9-14.2-16.3-15.7-26.7l2-0.1c4.8,7.4,10,14.5,14.8,21.9
			c10,15.4,21.8,29.8,30.6,45.7c-45.1,0.4-90.3,0.4-135.4,0C1814.1,465.6,1797.5,443,1782.3,419.7z"/>
		<g>
			<path class="st1" d="M422.6,202.8c16.2,1.9,24.5,12.2,28.2,18.5c-11.2-5.2-26.5-8.6-47.5-7c-3.2,0.3-6.4,0.7-9.4,1.2
				c-19.8-11.2-23.3-25.1-23.7-36.6C379.5,195.6,401.8,200.4,422.6,202.8z"/>
			<path class="st1" d="M341.4,193.2c2.2,2.7,5.5,5.8,9.7,7.1l7.7,2.3l-5.5-5.6c-4.8-4.9-6.8-10.8-5.8-17.6
				c7.1,12.2,20.5,19,23.8,20.5c3.3,5.8,8.4,11.5,16.6,16.8c-10.2,2.2-19.6,5.7-28.3,9.8c-6.3-4.1-10.6-8.7-13.3-13.4
				c-0.1-0.1-0.1-0.3-0.2-0.4C341.8,205.5,341.1,198.3,341.4,193.2z"/>
			<path class="st1" d="M319.1,209.5c11.7,6.1,20.7,6.6,24,6.5c2.7,4.3,6.6,8.7,12.1,12.6c-4.9,2.5-9.6,5.1-14.1,7.8
				c0,0-0.1,0-0.1,0.1c-8.5,4.8-24.5-2.9-34.2-7.6c-5.6-2.7-14.8-6.2-21.9-8.4c4.2-0.7,8.4-0.7,12.1-0.4c0,0,0,0,0,0c0,0,0,0,0,0
				c6.7,0.5,12.2,2,15,2.8l3.8,1.2l-1-3.6c-2.3-7.9-13.3-12.1-23.7-13.6C298.6,204.7,309.8,204.7,319.1,209.5z"/>
			<path class="st1" d="M279.2,268.2c-1.3-4.7-2.3-9.8-3.1-15.2c0.4,0,0.9,0,1.4,0c5.7,0,16.3-0.9,27.1-6.7c1-0.5,1.4-1.8,0.8-2.8
				c-0.6-1-1.9-1.3-2.9-0.8c-11.4,6.1-22.8,6.3-27,6.1c-0.6-4.2-1-8.6-1.3-13c14.5-0.2,23.8-4,26.8-5.4c1.5,0.6,2.9,1.3,4.1,1.9
				c7.7,3.7,18,8.7,27.1,9.5c-1.8,1.1-3.6,2.2-5.3,3.3C310.5,255.6,295.6,265,279.2,268.2z"/>
			<path class="st1" d="M152.2,36.4c7.8,12.5,21.3,27.1,44.2,42.5c1,0.6,2.3,0.4,3-0.5c0.7-0.9,0.4-2.2-0.5-2.8
				c-50.3-33.9-53.4-63-52.8-73c11.3,16,62.2,82.2,140.8,101.1c10.9,2.6,17.7,13,15.3,23.6c-6,27.5-8.8,52.6-8.2,74.8
				c-2.3,0.4-4.5,1-6.4,1.7c-1.6,0.6-2.6,2.1-2.4,3.8c0.2,1.7,1.6,2.9,3.3,3.1c2,0.2,4,0.5,5.9,0.9c0.1,1.5,0.2,2.9,0.4,4.3
				c-4-0.1-8.3,0.1-12.7,1c-1.7,0.3-2.9,1.7-3,3.3c-0.1,1.7,1,3.1,2.7,3.6c4,1.2,9,2.9,13.7,4.7c-4.3,1.5-11.7,3.4-21.6,3.5
				c-2.1-35.5,2.1-74.8,5.3-89.5c3.1-13.9-5.8-27.5-20.2-31c-40.7-9.8-74.5-31.3-100.1-53C152.8,48.5,151.9,40.9,152.2,36.4z"/>
			<path class="st1" d="M215.1,258.5c-30.7-7.2-42.8-23.8-47.2-32.8c11.6,7.3,29.2,14.7,55.9,20.3c0.2,0,0.3,0,0.5,0
				c1,0,1.9-0.6,2.1-1.6c0.3-1.1-0.5-2.2-1.6-2.4c-46.1-9.7-63.9-24.2-70.8-34.7c-3.3-5-4.3-9.3-4.5-12.2
				c10.8,9,30.1,18.8,64.6,27.2c0.2,0,0.4,0.1,0.5,0.1c0.9,0,1.8-0.6,2.1-1.5c0.3-1.1-0.4-2.2-1.5-2.5
				c-51.1-12.5-67.7-27.7-72.6-38.2c-2.2-4.6-2.1-8.4-1.6-10.8c12.2,11.4,31.6,21,57.9,28.4c0.2,0.1,0.4,0.1,0.6,0.1
				c0.9,0,1.8-0.6,2-1.4c0.3-1.1-0.3-2.2-1.4-2.5c-43.6-12.4-60-28.6-66.1-40.1c-3.8-7.2-4.1-13.4-3.8-17.1
				c13.3,14.2,34.7,27,64,38.3c0.3,0.1,0.5,0.1,0.8,0.1c0.8,0,1.6-0.5,2-1.3c0.4-1-0.1-2.2-1.2-2.6c-46.4-17.8-64.6-36.9-71.7-49.7
				c-4.4-7.9-5.1-14.5-5-18.7c10.5,13.5,30.7,29.6,69,45.7c0.3,0.1,0.6,0.2,0.9,0.2c0.8,0,1.6-0.5,1.9-1.2c0.5-1,0-2.2-1.1-2.7
				c-52.6-22.1-70-43.9-75.3-58.3c-3-8.1-2.4-14.6-1.5-18.5c8.5,13.6,25.3,30.6,57.6,49.6c0.3,0.2,0.7,0.3,1.1,0.3
				c0.7,0,1.4-0.3,1.8-1c0.6-1,0.3-2.2-0.7-2.8c-59.6-35.1-64.4-62.8-63.5-73.5c8.6,13.8,23.4,30.1,49,47.3c1,0.6,2.3,0.4,3-0.5
				c0.7-0.9,0.4-2.2-0.5-2.8c-56.6-38.1-59.2-70.8-58.3-81.3c6.1,8.7,24.5,33.2,53,57.5c0,0,0,0,0,0.1c0.2,0.4,0.6,0.6,1,0.8
				c26,21.9,60.2,43.6,101.4,53.5c12.2,2.9,19.7,14.5,17.1,26.2c-3.3,15.1-7.6,55.8-5.3,92.2c0,0,0,0.1,0,0.1c0,0.2,0,0.3,0.1,0.5
				c0.4,5.7,0.9,11.2,1.7,16.6c0,0.2,0,0.3,0.1,0.4c0.9,6.2,2,12.1,3.5,17.5c-7.4,1-15.1,0.6-23.5-1.5l-9.1-2.3
				C232.3,262.7,223.3,260.4,215.1,258.5C215.1,258.6,215.1,258.5,215.1,258.5z"/>
			<path class="st1" d="M113.5,286.7c-3.9,0.1-7.7,1.9-10.6,5.1c-6.4,6.9-5.3,16.8-4.1,22.1c0.9,3.7,2.2,7.3,3.5,10.8
				c1.4,3.8,2.7,7.4,3.5,11.2c1.5,7.2,1.1,14.4-1.2,20.9c-5.7,16.1-19.6,18.8-26.5,19.1c0.3-0.3,0.5-0.6,0.8-0.9
				c12.2-12.1,12.3-27.3,8.6-36.6c-0.4-1-1.6-1.6-2.7-1.2c-1.1,0.4-1.7,1.6-1.2,2.6c3.2,8.2,3.2,21.7-7.7,32.4
				c-1.4,1.4-2.6,2.8-3.6,4.3c-0.1,0.1-0.2,0.3-0.3,0.4c-5.9,8.7-6,18.7-5.4,24.8c-18.2-20.7-14-43.4-12.8-48.4
				c14.1-4.3,32.5-16.3,32.2-48.8c0-1.1-1-2-2.1-2c0,0,0,0,0,0c-1.2,0-2.1,0.9-2.1,2c0.3,30.2-16.1,41.2-30,45.2
				c-0.2,0-0.4,0.1-0.6,0.2c-2.4,0.7-4.8,1.1-7,1.4c14.9-14.1,12.1-33.5,10-47.6c-0.5-3.4-1-6.7-1.2-9.5c-1-14.5,7.9-30.6,29.9-34.1
				c18.2-2.9,38.9,11.2,44.6,15.4c-2.6,3.7-4.9,8.1-6.7,13.2C118.6,287.4,116.1,286.7,113.5,286.7z"/>
			<path class="st1" d="M159.4,486.2c-0.7,0.9-1.9,1.4-3.1,1.4h-12.4c-1.5,0-2.9-0.9-3.6-2.2c-1.2-2.5-2.4-5.1-3.4-7.6
				c2.1,0.3,5.1,0.5,8.8,0.5c3.6,0,7.9-0.2,12.9-0.8c0.5,2,1,3.8,1.4,5.4C160.4,484.1,160.2,485.3,159.4,486.2z"/>
			<path class="st1" d="M258.4,472.1c-0.8,1.1-2.1,1.8-3.5,1.8h-10.7c-1.5,0-2.8-0.7-3.6-1.9c-1-1.4-2-3-2.9-4.5
				c1.9,0.2,4.4,0.4,7.4,0.4c3.6,0,8.1-0.2,13.3-0.9c0.2,0.5,0.4,1,0.6,1.5C259.3,469.6,259.2,471,258.4,472.1z"/>
			<path class="st1" d="M256.8,463c-12.2,1.5-19.7,0.4-22-0.1c-17.1-28.5-34.5-69.6-37.4-76.6c1.2-1.6,2.4-3.1,3.5-4.7
				c2.6-0.9,13.3-4.4,27-5.1C233,399.3,248.5,441.1,256.8,463z"/>
			<path class="st1" d="M328.3,379.6c4.2,4.3,9.2,8.3,15,11.7c-3.1,7.9-17.5,44.4-33.6,71.5c-10.9,1.5-18.4,0.9-21.9,0.3
				c7.7-19.5,21.9-56.6,26.9-78.8C319.9,383.3,324.4,381.7,328.3,379.6z"/>
			<path class="st1" d="M304.1,471.9c-0.8,1.2-2.1,1.9-3.6,1.9h-10.6c-1.4,0-2.7-0.6-3.5-1.8c-0.8-1.1-1-2.5-0.5-3.8
				c0.2-0.4,0.3-0.8,0.5-1.2c2,0.3,5.5,0.8,10.4,0.8c2.9,0,6.4-0.2,10.3-0.6C306.1,468.8,305.1,470.4,304.1,471.9z"/>
			<path class="st1" d="M406.3,486.1c-0.8,1-2.1,1.5-3.4,1.5h-8.3c-1.8,0-3.4-1-4.1-2.6c-0.8-1.9-1.8-4.3-3-7
				c1.7,0.2,3.9,0.4,6.7,0.4c3.2,0,7.2-0.2,12-0.8c0.4,1.9,0.7,3.6,1,5.1C407.4,483.9,407.1,485.2,406.3,486.1z"/>
			<path class="st1" d="M494.1,256.7c-2.4,5.8-7.3,13.9-16.7,21.6c1-2.7,2-5.3,3.1-7.7c0.5-1.2,0.9-2.6,1.1-4.2
				c2.2-2.7,4.4-5.7,6.4-9c0.7-0.4,2.3-1.4,4.3-2.4c0.8-0.4,1.4,0,1.6,0.2C493.9,255.2,494.5,255.8,494.1,256.7z"/>
			<path class="st1" d="M489.4,240.6c-0.2-0.2-0.8-0.5-1.5-0.1c-9.5,4.8-22.9,12.6-23,12.6c-1,0.6-2.3,0.3-2.9-0.7
				c-0.6-1-0.3-2.2,0.7-2.8c0.1,0,3.9-2.3,8.9-5.1c-6.3-10.2-24.2-29.6-67.9-26.2c-16.4,1.3-30.4,6-43.3,12.2c0,0,0,0,0,0
				c-11,5.3-21.1,11.7-31.1,18c-16.7,10.6-32.8,20.7-50.9,23.8c0,0,0,0-0.1,0c-0.1,0-0.2,0-0.3,0c-8.6,1.4-17.7,1.3-27.5-1.2
				l-9.1-2.3c-48.6-12.1-70.7-17.6-91.7-7.1c-16.1,8.1-49.2,35.5-7.9,115.5c1.7,3.2,1.9,6.9,0.6,10.2c-2,5-6.2,14.6-12.5,22.1
				c-2.8,3.4-4.4,7.6-4.3,12c0.1,10.6,1.6,30.2,9.8,51.7c2.7,0.5,10.6,1.5,22.5,0c-4-18.1-7.1-46.8,8.2-60.9l2.5-2.3
				c21.8-20.1,54.8-50.5,32.2-88.1c-0.6-1-0.2-2.2,0.8-2.8c1-0.5,2.3-0.2,2.9,0.8c12.6,21.1,9.2,39.8-0.1,55.9
				c9.3-2.6,28.7-6.7,49.1-1.5c33.6,8.5,57.8,9.1,72.2,1.8c-19.9-23.1-19.8-53.1-19.8-53.5c0-1.1,1-2,2.1-2c0,0,0,0,0,0
				c1.2,0,2.1,0.9,2.1,2c0,0.4-0.1,45.2,37.1,65.7l0.6,0.3l0.3,0.5c7.5,14.2,27.1,59.3,37.7,84c2.1,0.5,8.4,1.4,19.8,0
				c-6-29.3-18.9-88.2-33.6-128.6c-0.1-0.2-0.1-0.3-0.2-0.5c-4.6-12.6-9.4-23.3-14.2-30.8c-0.6-1-0.3-2.2,0.7-2.8
				c1-0.6,2.3-0.3,2.9,0.7c4.2,6.6,8.4,15.6,12.5,26.2c11-30.5,27.4-46.5,30.8-49.7c-0.2-13.2,3.3-22.9,3.4-23.1
				c0.4-1.1,1.6-1.6,2.7-1.2c1.1,0.4,1.7,1.5,1.3,2.6c-0.3,0.8-3.6,9.8-3.3,22c0.1,0.4,0.1,0.7,0,1.1c0.5,14,5.9,31.9,25.8,46.1
				c4.1,3,9.4,3.9,14.4,2.6c4.9-1.3,8.8-4.5,10.8-8.9c1.1-2.5,1.9-5.4,2.5-8.7c2.5-15.3,7.3-33,12.6-46.8c-3.1,3-5.5,4.8-6,4.9
				c-0.2,0.1-0.4,0.1-0.7,0.1c-0.9,0-1.7-0.5-2-1.4c-0.3-0.9,0.1-1.9,1-2.4c1.2-0.8,6-4.9,11-10.9c0,0,0,0,0,0
				c4.9-5.9,9.9-13.6,12.1-22.1C490.1,241.2,489.6,240.8,489.4,240.6z M453.5,300.3c-0.3,0.8-1.1,1.3-2,1.3c-0.2,0-0.5,0-0.7-0.1
				c-9.3-3.2-9.7-10.6-8.6-14.2c0.3-1.1,1.5-1.7,2.6-1.4c1.1,0.3,1.8,1.4,1.4,2.5c-0.2,0.7-1.7,6.6,5.9,9.2
				C453.3,298.1,453.9,299.3,453.5,300.3z M478.1,254.5c-1.9,4.2-4.9,8.1-8.6,11.4c-0.5,0.4-1,0.6-1.6,0.6c-0.3,0-0.7-0.1-1-0.2
				c-0.9-0.4-1.4-1.3-1.4-2.2c0.1-2.1-0.4-3.8-0.7-4.6h0c-0.4-1,0-2.2,1-2.7c1.3-0.8,5.8-3.4,9-5.2c0.9-0.5,2-0.4,2.8,0.3
				C478.3,252.5,478.6,253.5,478.1,254.5z"/>
		</g>
		<g>
			<path class="st3" d="M21.7,573.8v-60H35v24.5l21.6-24.5h11.8l-26.7,30l26.7,30H55l-20-23.4v23.4H21.7z"/>
			<path class="st3" d="M97.7,573.8v-46.6H111v6.6c0.3-2.2,1-3.9,2.1-5c1.1-1.1,2.6-1.6,4.6-1.6h6.7c3.6,0,6.7,1.3,9.4,3.9
				c2.6,2.6,3.9,5.7,3.9,9.4v33.4h-13.3v-33.4c0-1.8-0.7-3.4-2-4.7c-1.3-1.3-2.9-2-4.8-2c-1.8,0-3.4,0.7-4.7,2c-1.3,1.3-2,2.9-2,4.7
				v33.4H97.7z"/>
			<path class="st3" d="M180.4,527.2h13.4c3.6,0,6.7,1.3,9.4,3.9c2.6,2.6,3.9,5.7,3.9,9.4v20c0,3.6-1.3,6.8-3.9,9.4
				c-2.6,2.6-5.7,4-9.4,4h-13.4c-3.6,0-6.8-1.3-9.4-3.9c-2.6-2.6-4-5.8-4-9.4v-20c0-3.6,1.3-6.7,4-9.4
				C173.6,528.5,176.8,527.2,180.4,527.2z M180.4,540.5v20c0,1.8,0.7,3.4,2,4.7c1.3,1.3,2.9,2,4.7,2c1.9,0,3.5-0.7,4.8-2
				c1.3-1.3,2-2.9,2-4.7v-20c0-1.8-0.7-3.4-2-4.7c-1.3-1.3-2.9-2-4.8-2c-1.8,0-3.4,0.7-4.7,2C181.1,537.1,180.4,538.7,180.4,540.5z"
				/>
			<path class="st3" d="M236.4,527.2h13.4v40h6.6c1.9,0,3.5-0.7,4.8-2c1.3-1.3,2-2.9,2-4.7v-33.3h13.3v40h6.7c1.8,0,3.4-0.7,4.7-2
				c1.3-1.3,2-2.9,2-4.7v-33.3h13.4V551c0,6.2-2.2,11.6-6.7,16.1c-4.5,4.5-9.8,6.7-16.1,6.7h-17.2v-2.1c-2.6,1.4-5.7,2.1-9.4,2.1
				h-17.3V527.2z"/>
			<path class="st3" d="M332.4,573.8v-60h13.4v60H332.4z"/>
			<path class="st3" d="M415,553.8h-26.6v6.6c0,1.8,0.7,3.4,2,4.7c1.3,1.3,2.9,2,4.7,2h6.7c4.4,0,6.6-2.2,6.6-6.7h6.6
				c-1,8.9-5.4,13.4-13.3,13.4h-13.4c-3.6,0-6.8-1.3-9.4-3.9c-2.6-2.6-4-5.8-4-9.4v-20c0-3.6,1.3-6.7,4-9.4c2.6-2.6,5.8-3.9,9.4-3.9
				h13.4c3.6,0,6.7,1.3,9.4,3.9c2.6,2.6,3.9,5.7,3.9,9.4V553.8z M388.4,547.2h13.4v-6.7c0-1.8-0.7-3.4-2-4.7c-1.3-1.3-2.9-2-4.8-2
				c-1.8,0-3.4,0.7-4.7,2c-1.3,1.3-2,2.9-2,4.7V547.2z"/>
			<path class="st3" d="M484.4,573.8h-13.3v-6.6c-0.5,4.4-2.8,6.6-6.7,6.6h-6.6c-3.6,0-6.8-1.3-9.4-3.9c-2.6-2.6-4-5.8-4-9.4v-20
				c0-3.6,1.3-6.7,4-9.4c2.6-2.6,5.8-3.9,9.4-3.9h13.4v-13.4h13.3V573.8z M471.1,533.8h-6.7c-1.8,0-3.4,0.7-4.7,2
				c-1.3,1.3-2,2.9-2,4.7v20c0,1.8,0.7,3.4,2,4.7c1.3,1.3,2.9,2,4.7,2c1.9,0,3.5-0.7,4.8-2c1.3-1.3,2-2.9,2-4.7V533.8z"/>
			<path class="st3" d="M553.8,527.2v53.3c0,3.6-1.3,6.8-3.9,9.4c-2.6,2.6-5.7,4-9.4,4h-13.4c-7.8,0-12.3-4.5-13.4-13.4h6.7
				c0.3,4.5,2.5,6.7,6.6,6.7h6.6c1.9,0,3.5-0.7,4.8-2c1.3-1.3,2-2.9,2-4.8v-13.3c-0.5,4.4-2.8,6.6-6.7,6.6h-6.6
				c-3.6,0-6.8-1.3-9.4-3.9c-2.6-2.6-4-5.8-4-9.4v-20c0-3.6,1.3-6.7,4-9.4c2.6-2.6,5.8-3.9,9.4-3.9H553.8z M540.5,533.8h-6.7
				c-1.8,0-3.4,0.7-4.7,2c-1.3,1.3-2,2.9-2,4.7v20c0,1.8,0.7,3.4,2,4.7c1.3,1.3,2.9,2,4.7,2c1.9,0,3.5-0.7,4.8-2
				c1.3-1.3,2-2.9,2-4.7V533.8z"/>
			<path class="st3" d="M623.1,553.8h-26.6v6.6c0,1.8,0.7,3.4,2,4.7c1.3,1.3,2.9,2,4.7,2h6.7c4.4,0,6.6-2.2,6.6-6.7h6.6
				c-1,8.9-5.4,13.4-13.3,13.4h-13.4c-3.6,0-6.8-1.3-9.4-3.9c-2.6-2.6-4-5.8-4-9.4v-20c0-3.6,1.3-6.7,4-9.4c2.6-2.6,5.8-3.9,9.4-3.9
				h13.4c3.6,0,6.7,1.3,9.4,3.9c2.6,2.6,3.9,5.7,3.9,9.4V553.8z M596.5,547.2h13.4v-6.7c0-1.8-0.7-3.4-2-4.7c-1.3-1.3-2.9-2-4.8-2
				c-1.8,0-3.4,0.7-4.7,2c-1.3,1.3-2,2.9-2,4.7V547.2z"/>
			<path class="st3" d="M721.8,527.2h-6.6c-0.6-4.5-2.7-6.7-6.3-6.7c-2.3,0-4.1,0.6-5.3,1.7c-1.2,1.1-1.8,2.8-1.8,5
				c0,1.7,0.6,3.2,1.9,4.7l14.2,15.8c2.6,2.9,3.9,6.1,3.9,9.4v3.3c0,3.6-1.3,6.8-3.9,9.4c-2.6,2.6-5.8,4-9.4,4h-6.6
				c-4.4,0-7.8-1.1-10-3.3c-2.2-2.2-3.4-5.6-3.4-10h6.7c0,0.5,0,0.9,0,1.1c0,1.8,0.7,3.2,2.1,4.2c1.4,1,2.9,1.4,4.6,1.4
				c2.3,0,4-0.6,5.1-1.7c1-1.1,1.6-2.8,1.6-5c0-1.7-0.6-3.3-1.9-4.7l-14.2-15.8c-2.6-2.9-3.9-6-3.9-9.4v-3.3c0-3.6,1.3-6.8,3.9-9.4
				c2.6-2.6,5.8-4,9.4-4h6.6C716.9,513.8,721.3,518.3,721.8,527.2z"/>
			<path class="st3" d="M757.8,580.5c0.3,4.5,2.5,6.7,6.6,6.7h6.6c1.9,0,3.5-0.7,4.8-2c1.3-1.3,2-2.9,2-4.8v-13.3
				c-0.5,4.4-2.8,6.6-6.7,6.6h-6.6c-3.6,0-6.8-1.3-9.4-3.9c-2.6-2.6-4-5.8-4-9.4v-33.3h13.4v33.3c0,1.8,0.7,3.4,2,4.7
				c1.3,1.3,2.9,2,4.7,2c1.9,0,3.5-0.7,4.8-2c1.3-1.3,2-2.9,2-4.7v-33.3h13.3v53.3c0,3.6-1.3,6.8-3.9,9.4c-2.6,2.6-5.7,4-9.4,4
				h-13.4c-7.8,0-12.3-4.5-13.4-13.4H757.8z"/>
			<path class="st3" d="M820.5,573.8v-46.6h13.4v6.6c0.3-2.2,1-3.9,2.1-5c1.1-1.1,2.6-1.6,4.6-1.6h6.7c3.6,0,6.7,1.3,9.4,3.9
				c2.6,2.6,3.9,5.7,3.9,9.4v33.4h-13.3v-33.4c0-1.8-0.7-3.4-2-4.7c-1.3-1.3-2.9-2-4.8-2c-1.8,0-3.4,0.7-4.7,2c-1.3,1.3-2,2.9-2,4.7
				v33.4H820.5z"/>
			<path class="st3" d="M923.2,540.5h-6.6c-0.5-4.4-2.8-6.6-6.7-6.6c-1.8,0-3.4,0.7-4.7,2c-1.3,1.3-2,2.9-2,4.7v20
				c0,1.8,0.7,3.4,2,4.7c1.3,1.3,2.9,2,4.7,2c3.9,0,6.2-2.2,6.7-6.7h6.6c-0.5,8.9-5,13.4-13.4,13.4h-6.6c-3.6,0-6.8-1.3-9.4-3.9
				c-2.6-2.6-4-5.8-4-9.4v-20c0-3.6,1.3-6.7,4-9.4c2.6-2.6,5.8-3.9,9.4-3.9h6.6C918.3,527.2,922.7,531.6,923.2,540.5z"/>
			<path class="st3" d="M952.5,573.8v-60h13.4v20c0.3-2.2,1-3.9,2.1-5c1.1-1.1,2.6-1.6,4.6-1.6h6.7c3.6,0,6.7,1.3,9.4,3.9
				c2.6,2.6,3.9,5.7,3.9,9.4v33.4h-13.3v-33.4c0-1.8-0.7-3.4-2-4.7c-1.3-1.3-2.9-2-4.8-2c-1.8,0-3.4,0.7-4.7,2c-1.3,1.3-2,2.9-2,4.7
				v33.4H952.5z"/>
			<path class="st3" d="M1035.2,573.8h-13.4v-46.6h13.4v13.3c0.5-4.4,1.9-7.7,4.1-10c2.2-2.2,5.3-3.3,9.2-3.3h6.6v13.3h-13.4
				c-1.8,0-3.4,0.7-4.7,2c-1.3,1.3-2,2.9-2,4.8V573.8z"/>
			<path class="st3" d="M1091.2,527.2h13.4c3.6,0,6.7,1.3,9.4,3.9c2.6,2.6,3.9,5.7,3.9,9.4v20c0,3.6-1.3,6.8-3.9,9.4
				c-2.6,2.6-5.7,4-9.4,4h-13.4c-3.6,0-6.8-1.3-9.4-3.9c-2.6-2.6-4-5.8-4-9.4v-20c0-3.6,1.3-6.7,4-9.4
				C1084.4,528.5,1087.6,527.2,1091.2,527.2z M1091.2,540.5v20c0,1.8,0.7,3.4,2,4.7c1.3,1.3,2.9,2,4.7,2c1.9,0,3.5-0.7,4.8-2
				c1.3-1.3,2-2.9,2-4.7v-20c0-1.8-0.7-3.4-2-4.7c-1.3-1.3-2.9-2-4.8-2c-1.8,0-3.4,0.7-4.7,2
				C1091.8,537.1,1091.2,538.7,1091.2,540.5z"/>
			<path class="st3" d="M1147.2,573.8v-46.6h13.4v6.6c0.3-2.2,1-3.9,2.1-5c1.1-1.1,2.6-1.6,4.6-1.6h6.7c3.6,0,6.7,1.3,9.4,3.9
				c2.6,2.6,3.9,5.7,3.9,9.4v33.4h-13.3v-33.4c0-1.8-0.7-3.4-2-4.7c-1.3-1.3-2.9-2-4.8-2c-1.8,0-3.4,0.7-4.7,2c-1.3,1.3-2,2.9-2,4.7
				v33.4H1147.2z"/>
			<path class="st3" d="M1223.3,580.5c0.3,4.5,2.5,6.7,6.6,6.7h6.6c1.9,0,3.5-0.7,4.8-2c1.3-1.3,2-2.9,2-4.8v-13.3
				c-0.5,4.4-2.8,6.6-6.7,6.6h-6.6c-3.6,0-6.8-1.3-9.4-3.9c-2.6-2.6-4-5.8-4-9.4v-33.3h13.4v33.3c0,1.8,0.7,3.4,2,4.7
				c1.3,1.3,2.9,2,4.7,2c1.9,0,3.5-0.7,4.8-2c1.3-1.3,2-2.9,2-4.7v-33.3h13.3v53.3c0,3.6-1.3,6.8-3.9,9.4c-2.6,2.6-5.7,4-9.4,4
				h-13.4c-7.8,0-12.3-4.5-13.4-13.4H1223.3z"/>
			<path class="st3" d="M1321.9,573.8v-46.6c0-3.7,1.3-6.8,4-9.4c2.6-2.6,5.8-3.9,9.4-3.9h13.4c3.6,0,6.7,1.3,9.4,4
				c2.6,2.6,3.9,5.8,3.9,9.4v46.6h-13.3v-26.6h-13.4v26.6H1321.9z M1335.3,540.5h13.4v-13.3c0-1.9-0.7-3.5-2-4.8
				c-1.3-1.3-2.9-2-4.8-2c-1.8,0-3.4,0.7-4.7,2c-1.3,1.3-2,2.9-2,4.8V540.5z"/>
			<path class="st3" d="M1424.6,540.5h-6.6c-0.6-4.4-2.7-6.6-6.3-6.6c-2.3,0-4.1,0.5-5.3,1.4c-1.2,0.9-1.8,2.3-1.8,4.1
				c0,1.9,3.2,4.6,9.7,8.1c5.3,2.8,8.3,5.2,9.1,7c0.8,1.9,1.2,3.9,1.2,6c0,3.7-1.3,6.8-3.9,9.4c-2.6,2.6-5.8,3.9-9.4,3.9h-6.6
				c-8.9,0-13.4-4.5-13.4-13.4h6.7c0.5,4.5,2.6,6.7,6.2,6.7c2.4,0,4.2-0.5,5.4-1.4c1.2-0.9,1.8-2.3,1.8-4.2c0-1.9-3.2-4.5-9.7-8
				c-5.3-2.8-8.3-5.2-9.2-7c-0.8-1.9-1.2-3.9-1.2-6c0-3.7,1.3-6.8,4-9.4c2.6-2.6,5.8-3.9,9.4-3.9h6.6
				C1419.6,527.2,1424.1,531.6,1424.6,540.5z"/>
			<path class="st3" d="M1487.3,540.5h-6.6c-0.6-4.4-2.7-6.6-6.3-6.6c-2.3,0-4.1,0.5-5.3,1.4c-1.2,0.9-1.8,2.3-1.8,4.1
				c0,1.9,3.2,4.6,9.7,8.1c5.3,2.8,8.3,5.2,9.1,7c0.8,1.9,1.2,3.9,1.2,6c0,3.7-1.3,6.8-3.9,9.4c-2.6,2.6-5.8,3.9-9.4,3.9h-6.6
				c-8.9,0-13.4-4.5-13.4-13.4h6.7c0.5,4.5,2.6,6.7,6.2,6.7c2.4,0,4.2-0.5,5.4-1.4c1.2-0.9,1.8-2.3,1.8-4.2c0-1.9-3.2-4.5-9.7-8
				c-5.3-2.8-8.3-5.2-9.2-7c-0.8-1.9-1.2-3.9-1.2-6c0-3.7,1.3-6.8,4-9.4c2.6-2.6,5.8-3.9,9.4-3.9h6.6
				C1482.3,527.2,1486.7,531.6,1487.3,540.5z"/>
			<path class="st3" d="M1529.9,527.2h13.4c3.6,0,6.7,1.3,9.4,3.9c2.6,2.6,3.9,5.7,3.9,9.4v20c0,3.6-1.3,6.8-3.9,9.4
				c-2.6,2.6-5.7,4-9.4,4h-13.4c-3.6,0-6.8-1.3-9.4-3.9c-2.6-2.6-4-5.8-4-9.4v-20c0-3.6,1.3-6.7,4-9.4
				C1523.2,528.5,1526.3,527.2,1529.9,527.2z M1529.9,540.5v20c0,1.8,0.7,3.4,2,4.7c1.3,1.3,2.9,2,4.7,2c1.9,0,3.5-0.7,4.8-2
				c1.3-1.3,2-2.9,2-4.7v-20c0-1.8-0.7-3.4-2-4.7c-1.3-1.3-2.9-2-4.8-2c-1.8,0-3.4,0.7-4.7,2
				C1530.6,537.1,1529.9,538.7,1529.9,540.5z"/>
			<path class="st3" d="M1619.3,540.5h-6.6c-0.5-4.4-2.8-6.6-6.7-6.6c-1.8,0-3.4,0.7-4.7,2c-1.3,1.3-2,2.9-2,4.7v20
				c0,1.8,0.7,3.4,2,4.7c1.3,1.3,2.9,2,4.7,2c3.9,0,6.2-2.2,6.7-6.7h6.6c-0.5,8.9-5,13.4-13.4,13.4h-6.6c-3.6,0-6.8-1.3-9.4-3.9
				c-2.6-2.6-4-5.8-4-9.4v-20c0-3.6,1.3-6.7,4-9.4c2.6-2.6,5.8-3.9,9.4-3.9h6.6C1614.3,527.2,1618.8,531.6,1619.3,540.5z"/>
			<path class="st3" d="M1648.6,520.5v-6.6h13.4v6.6H1648.6z M1648.6,573.8v-46.6h13.4v46.6H1648.6z"/>
			<path class="st3" d="M1717.9,547.2v-6.7c0-1.8-0.7-3.4-2-4.7c-1.3-1.3-2.9-2-4.8-2h-6.6c-3.9,0-6.2,2.2-6.6,6.6h-6.7
				c1.1-8.9,5.5-13.3,13.4-13.3h13.4c3.6,0,6.7,1.3,9.4,3.9c2.6,2.6,3.9,5.7,3.9,9.4v33.4h-13.3v-6.6c-0.5,4.4-2.8,6.6-6.7,6.6h-6.6
				c-3.6,0-6.8-1.3-9.4-3.9c-2.6-2.6-4-5.8-4-9.4c0-3.6,1.3-6.7,4-9.4c2.6-2.6,5.8-3.9,9.4-3.9H1717.9z M1717.9,553.8h-6.7
				c-1.8,0-3.4,0.7-4.7,2c-1.3,1.3-2,2.9-2,4.7c0,1.8,0.7,3.4,2,4.7c1.3,1.3,2.9,2,4.7,2c1.9,0,3.5-0.7,4.8-2c1.3-1.3,2-2.9,2-4.7
				V553.8z"/>
			<path class="st3" d="M1767.3,513.8h13.3v13.4h6.7v6.6h-6.7v26.6c0,2.2,0.7,3.9,2.2,5c1.4,1.1,2.7,1.7,3.9,1.7h0.6v6.6h-6.7
				c-3.6,0-6.7-1.3-9.4-3.9c-2.6-2.6-3.9-5.8-3.9-9.4v-26.6h-6.7v-6.6h6.7V513.8z"/>
			<path class="st3" d="M1816.6,520.5v-6.6h13.4v6.6H1816.6z M1816.6,573.8v-46.6h13.4v46.6H1816.6z"/>
			<path class="st3" d="M1872.5,527.2h13.4c3.6,0,6.7,1.3,9.4,3.9c2.6,2.6,3.9,5.7,3.9,9.4v20c0,3.6-1.3,6.8-3.9,9.4
				c-2.6,2.6-5.7,4-9.4,4h-13.4c-3.6,0-6.8-1.3-9.4-3.9c-2.6-2.6-4-5.8-4-9.4v-20c0-3.6,1.3-6.7,4-9.4
				C1865.8,528.5,1868.9,527.2,1872.5,527.2z M1872.5,540.5v20c0,1.8,0.7,3.4,2,4.7c1.3,1.3,2.9,2,4.7,2c1.9,0,3.5-0.7,4.8-2
				c1.3-1.3,2-2.9,2-4.7v-20c0-1.8-0.7-3.4-2-4.7c-1.3-1.3-2.9-2-4.8-2c-1.8,0-3.4,0.7-4.7,2
				C1873.2,537.1,1872.5,538.7,1872.5,540.5z"/>
			<path class="st3" d="M1928.5,573.8v-46.6h13.4v6.6c0.3-2.2,1-3.9,2.1-5c1.1-1.1,2.6-1.6,4.6-1.6h6.7c3.6,0,6.7,1.3,9.4,3.9
				c2.6,2.6,3.9,5.7,3.9,9.4v33.4h-13.3v-33.4c0-1.8-0.7-3.4-2-4.7c-1.3-1.3-2.9-2-4.8-2c-1.8,0-3.4,0.7-4.7,2c-1.3,1.3-2,2.9-2,4.7
				v33.4H1928.5z"/>
		</g>
	</g>
</g>
</svg>
