<?xml version="1.0" encoding="utf-8"?>
<!-- Generator: Adobe Illustrator 22.1.0, SVG Export Plug-In . SVG Version: 6.00 Build 0)  -->
<svg version="1.1" id="レイヤー_1" xmlns="http://www.w3.org/2000/svg" xmlns:xlink="http://www.w3.org/1999/xlink" x="0px"
	 y="0px" viewBox="0 0 1680 458" style="enable-background:new 0 0 1680 458;" xml:space="preserve">
<style type="text/css">
	.st0{fill:#FF2A00;}
	.st1{fill:url(#SVGID_1_);}
	.st2{fill:#FFFFFF;}
	.st3{fill:#040000;}
	.st4{fill:#00A0E9;}
	.st5{fill:#3E6F99;}
	.st6{fill:#005AAC;}
	.st7{fill:#393C41;}
</style>
<g>
	<g>
		<g>
			<g>
				<g>
					<g>
						<path class="st0" d="M310.8,157.1v78.6h30.3v19h-52.8v-97.6H310.8z"/>
						<path class="st0" d="M438.4,168.6c9.3,9,15.4,22.1,15.4,37.4c0,13.2-4.7,26.7-15.4,37.1c-9.2,8.9-21.7,14.5-38.3,14.5
							c-18.5,0-31.1-7.4-38.6-14.5c-9.5-8.9-15.4-22.2-15.4-36.8c0-14.2,6.4-28.6,15.3-37.5c6.7-6.7,19-14.5,38.7-14.5
							C415.5,154.2,428.4,158.9,438.4,168.6z M378.3,183.7c-4.3,4.2-8.8,11.4-8.8,22.4c0,9,3,16.3,9,22.2c6.4,6.1,13.5,8.2,21.2,8.2
							c10.1,0,17.2-3.7,22-8.5c3.9-3.7,8.6-10.7,8.6-22.1c0-10.2-4.2-17.8-8.6-22.2c-4.9-4.7-12.8-8.5-21.8-8.5
							C391.4,175.2,383.7,178.4,378.3,183.7z"/>
						<path class="st0" d="M492.5,157.1v78.6h30.3v19H470v-97.6H492.5z"/>
						<path class="st0" d="M565.4,157.1v97.6h-22.5v-97.6H565.4z"/>
						<path class="st0" d="M624,157.1c8.5,0,17.9,1.2,25.6,8c8.3,7.3,9.5,17,9.5,23.7c0,12.3-4.7,19.2-8.3,23
							c-7.8,7.9-18,8.6-24.9,8.6h-13.8v34.2h-22.5v-97.6H624z M612.1,202h8c3.1,0,8.5-0.1,12.1-3.7c2-2,3.7-5.4,3.7-9.7
							c0-4.1-1.5-7.5-3.7-9.5c-3.4-3.2-8.2-3.7-12.6-3.7h-7.6V202z"/>
						<path class="st0" d="M760.5,168.6c9.3,9,15.4,22.1,15.4,37.4c0,13.2-4.7,26.7-15.4,37.1c-9.2,8.9-21.7,14.5-38.3,14.5
							c-18.5,0-31.1-7.4-38.6-14.5c-9.5-8.9-15.4-22.2-15.4-36.8c0-14.2,6.4-28.6,15.3-37.5c6.7-6.7,19-14.5,38.7-14.5
							C737.7,154.2,750.6,158.9,760.5,168.6z M700.5,183.7c-4.3,4.2-8.8,11.4-8.8,22.4c0,9,3,16.3,9,22.2c6.4,6.1,13.5,8.2,21.2,8.2
							c10.1,0,17.2-3.7,22-8.5c3.9-3.7,8.6-10.7,8.6-22.1c0-10.2-4.2-17.8-8.6-22.2c-4.9-4.7-12.8-8.5-21.8-8.5
							C713.5,175.2,705.8,178.4,700.5,183.7z"/>
						<path class="st0" d="M824,157.1c8.5,0,17.9,1.2,25.6,8c8.3,7.3,9.5,17,9.5,23.7c0,12.3-4.7,19.2-8.3,23
							c-7.8,7.9-18,8.6-24.9,8.6h-13.8v34.2h-22.5v-97.6H824z M812.1,202h8c3.1,0,8.5-0.1,12.1-3.7c2-2,3.7-5.4,3.7-9.7
							c0-4.1-1.5-7.5-3.7-9.5c-3.4-3.2-8.2-3.7-12.6-3.7h-7.6V202z"/>
						<path class="st0" d="M884.5,230.4c7.5,0,13.3,5.9,13.3,13.3c0,7.5-5.9,13.3-13.3,13.3c-7.5,0-13.3-5.9-13.3-13.3
							C871.2,236.3,877,230.4,884.5,230.4z M873.7,223.2v-66.2h21.7v66.2H873.7z"/>
					</g>
				</g>
			</g>
			<g>
				<linearGradient id="SVGID_1_" gradientUnits="userSpaceOnUse" x1="163.9382" y1="297.5949" x2="163.9382" y2="116.1867">
					<stop  offset="0" style="stop-color:#FF0D00"/>
					<stop  offset="1" style="stop-color:#FF2A00"/>
				</linearGradient>
				<path class="st1" d="M227.6,253.9c0,6.8-3.6,13.1-9.5,16.5l-40.2,23.2c-9.2,5.3-20.6,5.3-29.8,0l-40.2-23.2
					c-5.9-3.4-9.5-9.7-9.5-16.5l0-3.6c0-1.8,2-3,3.5-2c4.4,2.7,9.5,4.2,15,4.2c6.3,0,12.2-2.1,16.9-5.5c1.4-1,3.4-0.5,4.2,1
					c4.8,8.9,14.2,14.9,25,14.9c11,0,20.5-6.2,25.3-15.3c0.7-1.4,2.4-1.9,3.8-1.3c3.6,1.7,7.7,2.5,12,2.5
					c10.3,0,23.7-10.5,24.6-24.7c1-17.6-12.5-28.5-28-28.5c-41.9,0-60.8,39.1-86.3,45.1c-16.6,3.9-28.8-8.4-24.2-33.4
					c9.5-51,61.3-95.8,81.9-90.5c14.8,3.8-3.1,30.3,9.8,34.6c63.7,20.9,66.2,77.6,45.9,94.5L227.6,253.9z"/>
				<g>
					<path class="st2" d="M90,207.1c0.1-0.7,0.3-1.4,0.5-2.2C90.3,205.6,90.2,206.3,90,207.1z"/>
					<path class="st2" d="M110.9,251.9c1.9,0.4,3.9,0.6,6,0.6c2.4,0,4.7-0.3,6.9-0.8c3.7-0.9,7.1-2.5,10-4.7
						c0.3-0.3,0.7-0.4,1.1-0.5c1.2-0.2,2.5,0.3,3.1,1.5c4.8,8.9,14.2,14.9,25,14.9c9.6,0,18.1-4.8,23.3-12.1c0.7-1,1.4-2.1,2-3.3
						c0.2-0.3,0.4-0.6,0.7-0.9c0.3-0.2,0.6-0.4,0.9-0.5c0.3-0.1,0.7-0.2,1.1-0.1s0.7,0.1,1.1,0.3c3.6,1.7,7.7,2.5,12,2.5
						c10.3,0,23.7-10.5,24.6-24.7c0.6-11-4.4-19.4-12-24.1c-2.3-1.4-4.8-2.5-7.5-3.2c-0.9-0.2-1.8-0.5-2.7-0.6
						c-1.9-0.3-3.8-0.5-5.7-0.5c-6.5,0-12.5,1-18.1,2.6c-1.1,0.3-2.2,0.7-3.3,1.1c-5.4,1.9-10.3,4.4-14.9,7.3
						c-7.4,4.6-14,10.1-20.3,15.3c-1.6,1.3-3.1,2.6-4.6,3.9c-3.1,2.5-6.1,4.9-9.1,7.1c-5.3,3.7-10.5,6.6-16.1,7.9
						c-16.6,3.9-28.8-8.4-24.2-33.4c-7.5,32.6,10.3,40.2,11.9,41.1C104.6,249.9,107.6,251.2,110.9,251.9z"/>
				</g>
			</g>
		</g>
	</g>
	<g>
		<path class="st3" d="M1537.8,256.5h-19.2V156h38.2v81.2C1556.8,247.8,1548.3,256.4,1537.8,256.5"/>
		<path class="st4" d="M975.5,237.4c0-5.1,2-10,5.7-13.7c3.6-3.6,8.6-5.6,13.7-5.6h19v38.3h-38.4
			C975.5,256.5,975.5,237.4,975.5,237.4z"/>
		<path class="st3" d="M1240.2,211.1h45.3v-38.3h-45.3V156h-38.4v76.4c0,13.3,10.8,24.1,24,24.1h59.5v-38.3h-45.3L1240.2,211.1
			L1240.2,211.1z"/>
		<path class="st4" d="M1170.8,172.7h-14.2v38.3h38.2v-14.2C1194.8,183.5,1184,172.7,1170.8,172.7"/>
		<path class="st3" d="M1487.6,172.7h-104.7v83.7h38.4v-45.4h6.9v45.4h38.4v-45.4h6.9v45.4h38.2v-59.6
			C1511.7,183.5,1500.9,172.7,1487.6,172.7 M1080.4,172.7h-21.2V156h-38.4v100.5h38.4v-45.4h6.9v45.4h38.2v-59.6
			C1104.3,183.6,1093.6,172.8,1080.4,172.7 M1149.7,218.1v-45.4h-14.4c-13.3,0-24,10.8-24,24.1v30.7c0,16,12.9,28.9,28.9,28.9h54.8
			v-38.3L1149.7,218.1L1149.7,218.1z"/>
		<path class="st4" d="M1351.8,172.7h-14.2v38.3h38.2v-14.2C1375.9,183.5,1365.1,172.7,1351.8,172.7"/>
		<path class="st3" d="M1330.6,218.1v-45.4h-14.4c-6.4,0-12.5,2.5-17,7.1c-4.5,4.5-7,10.7-7,17v30.7c0,16,12.9,28.9,28.9,28.9h54.8
			v-38.3L1330.6,218.1L1330.6,218.1z"/>
	</g>
</g>
<g>
	<g>
		<path class="st5" d="M895.2,312.7c0,0.3,0.3,0.6,0.6,0.6h4.1c0.3,0,0.6-0.3,0.6-0.6V305c0-0.3-0.3-0.6-0.6-0.6h-4.1
			c-0.3,0-0.6,0.3-0.6,0.6V312.7z"/>
		<path class="st5" d="M902.7,312.7c0,0.3,0.3,0.6,0.6,0.6h4.1c0.3,0,0.6-0.3,0.6-0.6V305c0-0.3-0.3-0.6-0.6-0.6h-4.1
			c-0.3,0-0.6,0.3-0.6,0.6V312.7z"/>
		<path class="st5" d="M778.8,315.2c3,0,5.4-2.4,5.4-5.4c0-3-2.4-5.4-5.4-5.4c-3,0-5.4,2.4-5.4,5.4
			C773.5,312.8,775.9,315.2,778.8,315.2"/>
		<path class="st5" d="M839.4,304.4c-3,0-5.4,2.4-5.4,5.4s2.4,5.4,5.4,5.4c3,0,5.4-2.4,5.4-5.4S842.4,304.4,839.4,304.4"/>
		<path class="st5" d="M1045.2,316.5c3.3,0,6-2.7,6-6c0-3.3-2.7-6-6-6c-3.3,0-6,2.7-6,6C1039.1,313.8,1041.8,316.5,1045.2,316.5"/>
	</g>
	<g>
		<g>
			<path class="st6" d="M637.5,338.1h2.4c0.1,0,0.3-0.1,0.3-0.2l10-16.4l5.5,18.8c0,0.1,0.2,0.2,0.3,0.2h10.5c0.1,0,0.2-0.1,0.2-0.2
				l-11.1-35.2c0-0.1-0.2-0.2-0.3-0.2h-4c-0.1,0-0.3,0.1-0.3,0.2l-13.5,21l-13.5-21c-0.1-0.1-0.2-0.2-0.3-0.2h-4
				c-0.1,0-0.3,0.1-0.3,0.2l-11.1,35.2c0,0.1,0,0.2,0.2,0.2H619c0.1,0,0.3-0.1,0.3-0.2l5.5-18.8l10,16.4c0.1,0.1,0.2,0.2,0.3,0.2
				H637.5z"/>
			<path class="st6" d="M608.7,320.6L608.7,320.6c0-0.1-0.1-0.2-0.2-0.2h-1.4h-10.4h-18.2c-1.6,0-2.9,1.3-2.9,2.9s1.3,2.9,2.9,2.9
				h17.8c-2.1,5.6-9.3,9.7-17.8,9.7c-10.2,0-18.5-5.9-18.5-13.2c0-7.3,8.3-13.2,18.5-13.2c5.6,0,10.6,1.8,14,4.6c0,0,0,0,0,0
				c0,0,0.1,0,0.1,0h12.3c0.1,0,0.2-0.1,0.2-0.2c0-0.1,0-0.1-0.1-0.1c0,0,0,0,0,0c-5.2-5.6-15.1-9.3-26.5-9.3
				c-16.8,0-30.4,8.2-30.4,18.3c0,10.1,13.6,18.3,30.4,18.3c16.8,0,30.4-8.2,30.4-18.3C608.9,322,608.9,321.3,608.7,320.6"/>
			<path class="st6" d="M696.5,304.4c-16.8,0-30.4,8.2-30.4,18.3c0,10.1,13.6,18.3,30.4,18.3c16.8,0,30.4-8.2,30.4-18.3
				C726.9,312.6,713.3,304.4,696.5,304.4 M696.5,335.9c-10.2,0-18.5-5.9-18.5-13.2c0-7.3,8.3-13.2,18.5-13.2
				c10.2,0,18.5,5.9,18.5,13.2C715,330,706.7,335.9,696.5,335.9"/>
		</g>
		<g>
			<g>
				<path class="st7" d="M907.7,340.1c0,0.2,0.1,0.4,0.4,0.4h6.5c0.2,0,0.4-0.2,0.4-0.4l0.7-10.6c0-0.2-0.1-0.4-0.4-0.4h-6.5
					c-0.2,0-0.4,0.2-0.4,0.4L907.7,340.1z"/>
				<path class="st7" d="M929.8,340.1c0,0.2,0.1,0.4,0.4,0.4h6.5c0.2,0,0.4-0.2,0.4-0.4l0.7-10.6c0-0.2-0.1-0.4-0.4-0.4h-6.5
					c-0.2,0-0.4,0.2-0.4,0.4L929.8,340.1z"/>
				<path class="st7" d="M951.9,329.1c-0.2,0-0.4,0.2-0.4,0.4l0.7,10.6c0,0.2,0.2,0.4,0.4,0.4h6.5c0.2,0,0.4-0.2,0.4-0.4l-0.7-10.6
					c0-0.2-0.2-0.4-0.4-0.4H951.9z"/>
				<path class="st7" d="M948.6,320.6c-0.2,0-0.4-0.2-0.4-0.4v-3.5c0-0.2,0.2-0.4,0.4-0.4h8c0.2,0,0.4-0.2,0.4-0.4v-3.2
					c0-0.2-0.2-0.4-0.4-0.4h-8c-0.2,0-0.4-0.2-0.4-0.4v-6.6c0-0.2-0.2-0.4-0.4-0.4h-6.5c-0.2,0-0.4,0.2-0.4,0.4v6.6
					c0,0.2-0.2,0.4-0.4,0.4h-3c-0.2,0-0.4-0.2-0.4-0.4l0.5-6.6c0-0.2-0.1-0.4-0.4-0.4h-6.5c-0.2,0-0.4,0.2-0.4,0.4l-0.7,10.6
					c0,0.2,0.1,0.4,0.4,0.4h6.5c0.2,0,0.4,0,0.4,0s0.2,0,0.4,0h3.2c0.2,0,0.4,0.2,0.4,0.4v3.5c0,0.2-0.2,0.4-0.4,0.4h-10.5
					c-0.2,0-0.4,0.2-0.4,0.4v3.2c0,0.2,0.2,0.4,0.4,0.4h10.5c0.2,0,0.4,0.2,0.4,0.4v15.2c0,0.2,0.2,0.4,0.4,0.4h6.5
					c0.2,0,0.4-0.2,0.4-0.4v-15.2c0-0.2,0.2-0.4,0.4-0.4h10.5c0.2,0,0.4-0.2,0.4-0.4v-3.2c0-0.2-0.2-0.4-0.4-0.4H948.6z"/>
				<path class="st7" d="M919,311.9c0,0.2-0.2,0.4-0.4,0.4h-6.5c-0.2,0-0.4,0.2-0.4,0.4v3.2c0,0.2,0.2,0.4,0.4,0.4h6.5
					c0.2,0,0.4,0.2,0.4,0.4v23.4c0,0.2,0.2,0.4,0.4,0.4h6.5c0.2,0,0.4-0.2,0.4-0.4v-34.8c0-0.2-0.2-0.4-0.4-0.4h-6.5
					c-0.2,0-0.4,0.2-0.4,0.4V311.9z"/>
			</g>
			<path class="st7" d="M848.7,340c0,0.3,0.2,0.6,0.5,0.6h6.4c0.3,0,0.6-0.3,0.6-0.6l1.1-14.6c0-0.3-0.2-0.6-0.5-0.6h-6.4
				c-0.3,0-0.6,0.3-0.6,0.6L848.7,340z"/>
			<path class="st7" d="M885,324.8c-0.3,0-0.5,0.3-0.5,0.6l1.1,14.6c0,0.3,0.3,0.6,0.6,0.6h6.4c0.3,0,0.5-0.3,0.5-0.6l-1.1-14.6
				c0-0.3-0.3-0.6-0.6-0.6H885z"/>
			<path class="st7" d="M891.8,317.6c0.3,0,0.6-0.3,0.6-0.6v-6.1c0-0.3-0.3-0.6-0.6-0.6h-16.7c-0.3,0-0.6-0.3-0.6-0.6v-4.3
				c0-0.3-0.3-0.6-0.6-0.6h-6.1c-0.3,0-0.6,0.3-0.6,0.6v4.3c0,0.3-0.3,0.6-0.6,0.6H850c-0.3,0-0.6,0.3-0.6,0.6v6.1
				c0,0.3,0.3,0.6,0.6,0.6h16.7c0.3,0,0.6,0.3,0.6,0.6v21.8c0,0.3,0.3,0.6,0.6,0.6h6.1c0.3,0,0.6-0.3,0.6-0.6v-21.8
				c0-0.3,0.3-0.6,0.6-0.6H891.8z"/>
			<path class="st7" d="M755.9,309.4l-0.3,0.3c0,0-0.1,0.1-0.3,0.3l-19.9,19.9c-0.1,0.1-0.1,0.4,0,0.5l4.6,4.6
				c0.1,0.1,0.4,0.1,0.5,0l16.6-16.6c0.1-0.1,0.4-0.1,0.5,0l21.7,21.8c0.1,0.1,0.4,0.1,0.5,0l4.6-4.6c0.1-0.1,0.1-0.4,0-0.5
				L757.7,308c-0.1-0.1-0.4-0.1-0.5,0L755.9,309.4z"/>
			<path class="st7" d="M793.6,340.1c0,0.2,0.1,0.4,0.3,0.4h7c0.2,0,0.4-0.2,0.4-0.4l3.8-31.7c0-0.2-0.1-0.4-0.3-0.4h-7
				c-0.2,0-0.4,0.2-0.4,0.4L793.6,340.1z"/>
			<path class="st7" d="M822.2,308.1c-0.2,0-0.4,0.2-0.3,0.4l3.8,31.7c0,0.2,0.2,0.4,0.4,0.4h7c0.2,0,0.4-0.2,0.3-0.4l-3.8-31.7
				c0-0.2-0.2-0.4-0.4-0.4H822.2z"/>
			<g>
				<path class="st7" d="M1064.2,305.3c0-0.2-0.2-0.4-0.4-0.4h-6.5c-0.2,0-0.4,0.2-0.3,0.4l6,34.8c0,0.2,0.2,0.4,0.4,0.4h6.5
					c0.2,0,0.4-0.2,0.3-0.4L1064.2,305.3z"/>
				<path class="st7" d="M1026.6,304.9c-0.2,0-0.4,0.2-0.4,0.4l-6,34.8c0,0.2,0.1,0.4,0.3,0.4h6.5c0.2,0,0.4-0.2,0.4-0.4l6-34.8
					c0-0.2-0.1-0.4-0.3-0.4H1026.6z"/>
			</g>
			<path class="st7" d="M1048.4,329.1c-0.2,0-0.3,0.2-0.3,0.4l1.5,6.7c0,0.2-0.1,0.4-0.3,0.4h-8.6c-0.2,0-0.3-0.2-0.3-0.4l2.6-12.2
				c0-0.2,0.2-0.4,0.5-0.4h14.2c0.2,0,0.4-0.2,0.4-0.4c0,0-0.5-3.1-0.6-3.3c0-0.2-0.2-0.4-0.4-0.4h-23.5c-0.2,0-0.4,0.2-0.4,0.4
				l-0.6,3.3c0,0.2,0.2,0.4,0.4,0.4h3.2c0.2,0,0.3,0.2,0.3,0.4l-3.5,16.2c0,0.2,0.1,0.4,0.3,0.4h24.2c0.2,0,0.3-0.2,0.3-0.4
				l-2.3-10.6c0-0.2-0.2-0.4-0.5-0.4H1048.4z"/>
			<g>
				<path class="st7" d="M1114.3,336.5c-0.2,0-0.4-0.2-0.4-0.4V324c0-0.2,0.2-0.4,0.4-0.4h8c0.2,0,0.4-0.2,0.4-0.4V320
					c0-0.2-0.2-0.4-0.4-0.4h-8c-0.2,0-0.4-0.2-0.4-0.4v-13.9c0-0.2-0.2-0.4-0.4-0.4h-6.5c-0.2,0-0.4,0.2-0.4,0.4v13.9
					c0,0.2-0.2,0.4-0.4,0.4h-8c-0.2,0-0.4,0.2-0.4,0.4v3.2c0,0.2,0.2,0.4,0.4,0.4h8c0.2,0,0.4,0.2,0.4,0.4v12.2
					c0,0.2-0.2,0.4-0.4,0.4H1096c-0.2,0-0.4,0.2-0.4,0.4v3.2c0,0.2,0.2,0.4,0.4,0.4h28.6c0.2,0,0.4-0.2,0.4-0.4v-3.2
					c0-0.2-0.2-0.4-0.4-0.4H1114.3z"/>
				<path class="st7" d="M1097.8,316.8c0.1-0.1,0.3-0.4,0.3-0.7v-3.1c0-0.2-0.2-0.4-0.4-0.4h-5.5c-0.2,0-0.4-0.2-0.4-0.4l-0.9-6.8
					c0-0.2-0.2-0.4-0.4-0.4h-6.5c-0.2,0-0.4,0.2-0.3,0.4l0.9,6.8c0,0.2-0.1,0.4-0.3,0.4h-7.8c-0.2,0-0.4,0.2-0.4,0.4v3.1
					c0,0.2,0.2,0.4,0.4,0.4h10.7c0.2,0,0.3,0.1,0.1,0.3l-11.7,11.7c-0.1,0.1-0.1,0.4,0,0.5l4.8,4.7c0.2,0.1,0.4,0.1,0.5,0l3.3-3.3
					c0.1-0.1,0.3-0.1,0.3,0.1v9.6c0,0.2,0.2,0.4,0.4,0.4h6.5c0.2,0,0.4-0.2,0.4-0.4v-16.8c0-0.2,0.1-0.5,0.3-0.7L1097.8,316.8z"/>
			</g>
			<g>
				<path class="st7" d="M1005.5,305.3c0-0.2-0.2-0.4-0.4-0.4h-6.5c-0.2,0-0.4,0.2-0.3,0.4l1.1,6.7c0,0.2-0.1,0.4-0.3,0.4h-32.9
					c-0.2,0-0.4,0.2-0.4,0.4v3.2c0,0.2,0.2,0.4,0.4,0.4h33.6c0.2,0,0.4,0.2,0.4,0.4l4,23.5c0,0.2,0.2,0.4,0.4,0.4h6.5
					c0.2,0,0.4-0.2,0.3-0.4l-4-23.5c0-0.2,0.1-0.4,0.3-0.4h3.4c0.2,0,0.4-0.2,0.4-0.4v-3.2c0-0.2-0.2-0.4-0.4-0.4h-4.1
					c-0.2,0-0.4-0.2-0.4-0.4L1005.5,305.3z"/>
				<path class="st7" d="M968.2,324.2c0,0.2,0.2,0.4,0.4,0.4h9.2c0.2,0,0.4,0.2,0.4,0.4v11.2c0,0.2-0.2,0.4-0.4,0.4h-9.2
					c-0.2,0-0.4,0.2-0.4,0.4v3.2c0,0.2,0.2,0.4,0.4,0.4H995c0.2,0,0.4-0.2,0.4-0.4v-3.2c0-0.2-0.2-0.4-0.4-0.4h-9.2
					c-0.2,0-0.4-0.2-0.4-0.4v-11.2c0-0.2,0.2-0.4,0.4-0.4h9.2c0.2,0,0.4-0.2,0.4-0.4v-3.2c0-0.2-0.2-0.4-0.4-0.4h-26.4
					c-0.2,0-0.4,0.2-0.4,0.4V324.2z"/>
				<path class="st7" d="M1011.4,304.4c-0.2,0-0.4,0.2-0.4,0.4l0.9,5.2c0,0.2,0.2,0.4,0.4,0.4h5.8c0.2,0,0.4-0.2,0.4-0.4l-0.9-5.2
					c0-0.2-0.2-0.4-0.4-0.4H1011.4z"/>
			</g>
		</g>
	</g>
</g>
</svg>
