<svg id="Layer_1" data-name="Layer 1" xmlns="http://www.w3.org/2000/svg" viewBox="0 0 500 200"><defs><style>.cls-1{fill:#fdb924;}.cls-2{fill:#009edb;}.cls-3{fill:#231f20;}</style></defs><title>Artboard 1</title><path class="cls-1" d="M250.24,71.88a1388.06,1388.06,0,0,1,250,22.37V92a1390.2,1390.2,0,0,0-250-22.34A1390.33,1390.33,0,0,0,.24,92v2.24A1388,1388,0,0,1,250.24,71.88Z"/><path class="cls-2" d="M284.71,113.94c0,21.83-15.65,31.53-34.61,31.53-14.33,0-24.92-3.31-34-9l-1.54,15.65c8.16,3.53,19.84,6.61,34.83,6.61,23.81,0,50.49-12.35,50.49-43.44,0-23.39-19.08-34.67-37.39-44.46l-6,0q-11.47,0-22.86.19C254.51,85.74,284.71,94.18,284.71,113.94Z"/><path class="cls-2" d="M112.87,39.19c0-19.84,17.42-26.46,33.29-26.46,10.36,0,21.17,2,28,5.73l2.42-13.89C166,.61,153.88-.49,146.39-.49c-27.12,0-48.73,15.44-48.73,40.13,0,17.28,12.95,27.84,27.75,36.65q13.33-1.18,26.78-2.12C133.31,63.55,112.87,55.81,112.87,39.19Z"/><path class="cls-1" d="M250,70.8c-16.9-9-33.16-16.79-33.16-31.61,0-19.84,17.42-26.46,33.29-26.46,10.37,0,21.17,2,28,5.73l2.42-13.89C270,.61,257.88-.49,250.38-.49c-27.12,0-48.73,15.44-48.73,40.13,0,14,8.44,23.52,19.48,31.33q11.39-.18,22.86-.19Z"/><path class="cls-3" d="M368.2,15.38h45.42V2.15H307.56V15.38H353V74.5q7.62.55,15.21,1.18Z"/><path class="cls-3" d="M168.22,113.94c0,21.83-15.66,31.53-34.62,31.53-14.33,0-24.92-3.31-34-9L98.1,152.08c8.16,3.53,19.84,6.61,34.84,6.61,23.81,0,50.49-12.35,50.49-43.44,0-20.77-15-32-31.24-41.1q-13.45.93-26.78,2.12C145.16,88,168.22,96.67,168.22,113.94Z"/><path class="cls-2" d="M368.2,156.05V75.68Q360.61,75,353,74.5v81.55Z"/><path class="cls-3" d="M106.81,179.22a7.78,7.78,0,0,0-3.32-.74c-1.42,0-3.09.51-3.09,2.36,0,3.4,7.61,2.61,7.61,8.44,0,3.78-2.92,5.27-6.46,5.27a11.85,11.85,0,0,1-3.63-.74l.25-2.36a10.73,10.73,0,0,0,3.68.86c1.45,0,3.47-.81,3.47-2.89,0-4-7.61-2.86-7.61-8.37,0-3.14,2.48-4.82,5.68-4.82a11.79,11.79,0,0,1,3.78.63Z"/><path class="cls-3" d="M112.89,186.54c.18-1.67,1.14-3.6,3.47-3.6,2.05,0,3.22,1.62,3.22,3.6Zm8.24,4.79a7.63,7.63,0,0,1-4,1.29,4.23,4.23,0,0,1-4.26-4.31h9.23c0-4.16-1.39-7.3-5.7-7.3-3.65,0-6.06,2.71-6.06,6.54,0,4.21,2.1,7,6.69,7a9.87,9.87,0,0,0,4.08-.84Z"/><path class="cls-3" d="M133.53,183.5a6.9,6.9,0,0,0-2.59-.56c-2.66,0-4.16,2.38-4.16,4.84,0,2.31,1.24,4.84,4.31,4.84a5,5,0,0,0,2.56-.74l.18,2.13a7.27,7.27,0,0,1-3,.53,6.54,6.54,0,0,1-6.59-6.77,6.38,6.38,0,0,1,6.59-6.77,8.93,8.93,0,0,1,2.89.51Z"/><path class="cls-3" d="M148,194.25H145.7V192.2h-.05a4.65,4.65,0,0,1-4.23,2.36c-3.35,0-4.84-2.08-4.84-5.55v-7.68H139V188c0,3,.66,4.49,2.74,4.62,2.71,0,3.93-2.18,3.93-5.32v-6H148Z"/><path class="cls-3" d="M152.07,181.32h2.23v2h.05a3.94,3.94,0,0,1,3.37-2.31,6.68,6.68,0,0,1,1.57.18v2.13a3.53,3.53,0,0,0-1.32-.23c-2.13,0-3.52,2-3.52,5.27v5.88h-2.38Z"/><path class="cls-3" d="M163.6,186.54c.18-1.67,1.14-3.6,3.47-3.6,2.05,0,3.22,1.62,3.22,3.6Zm8.24,4.79a7.64,7.64,0,0,1-4,1.29,4.23,4.23,0,0,1-4.26-4.31h9.23c0-4.16-1.39-7.3-5.7-7.3-3.65,0-6.06,2.71-6.06,6.54,0,4.21,2.1,7,6.69,7a9.88,9.88,0,0,0,4.08-.84Z"/><path class="cls-3" d="M191.34,179.22a7.78,7.78,0,0,0-3.32-.74c-1.42,0-3.09.51-3.09,2.36,0,3.4,7.61,2.61,7.61,8.44,0,3.78-2.92,5.27-6.47,5.27a11.85,11.85,0,0,1-3.63-.74l.25-2.36a10.73,10.73,0,0,0,3.68.86c1.44,0,3.47-.81,3.47-2.89,0-4-7.61-2.86-7.61-8.37,0-3.14,2.48-4.82,5.68-4.82a11.8,11.8,0,0,1,3.78.63Z"/><path class="cls-3" d="M195.75,175.24h2.38v11.33l5.2-5.25h3.25l-6,5.73,6.77,7.2h-3.42l-5.78-6.64v6.64h-2.38Z"/><path class="cls-3" d="M208.89,197.75a3.66,3.66,0,0,0,1.12.2c2.13,0,2.84-2.94,2.84-3.2a7.13,7.13,0,0,0-.46-1.37L208,181.32h2.61l3.47,10.7h.05l3.55-10.7h2.41l-4.77,13.21c-.89,2.48-1.82,5.35-5,5.35a7.86,7.86,0,0,1-1.62-.18Z"/><path class="cls-3" d="M233.33,178.79h-5.5v-2.23h13.54v2.23h-5.5v15.47h-2.54Z"/><path class="cls-3" d="M243.48,186.54c.18-1.67,1.14-3.6,3.47-3.6,2.05,0,3.22,1.62,3.22,3.6Zm8.24,4.79a7.64,7.64,0,0,1-4,1.29,4.23,4.23,0,0,1-4.26-4.31h9.23c0-4.16-1.4-7.3-5.71-7.3-3.65,0-6.06,2.71-6.06,6.54,0,4.21,2.1,7,6.69,7a9.88,9.88,0,0,0,4.08-.84Z"/><path class="cls-3" d="M264.11,183.5a6.89,6.89,0,0,0-2.59-.56c-2.66,0-4.16,2.38-4.16,4.84,0,2.31,1.24,4.84,4.31,4.84a5,5,0,0,0,2.56-.74l.18,2.13a7.27,7.27,0,0,1-3,.53,6.54,6.54,0,0,1-6.59-6.77,6.38,6.38,0,0,1,6.59-6.77,8.93,8.93,0,0,1,2.89.51Z"/><path class="cls-3" d="M267.16,175.24h2.38v7.94h.05a4.74,4.74,0,0,1,4.16-2.16c3.35,0,4.84,2.08,4.84,5.55v7.68h-2.38v-6.69c0-3-.66-4.49-2.74-4.61-2.71,0-3.93,2.18-3.93,5.32v6h-2.38Z"/><path class="cls-3" d="M282.65,181.32H285v2.05H285a4.65,4.65,0,0,1,4.23-2.36c3.35,0,4.84,2.08,4.84,5.55v7.68H291.7v-6.69c0-3-.66-4.49-2.74-4.61-2.71,0-3.93,2.18-3.93,5.32v6h-2.38Z"/><path class="cls-3" d="M299.81,187.79c0-2.46,1.49-4.84,4.06-4.84s4,2.38,4,4.84c0,2.31-1.24,4.84-4,4.84S299.81,190.09,299.81,187.79Zm-2.54,0a6.58,6.58,0,1,0,13.16,0c0-3.93-2.64-6.77-6.57-6.77A6.38,6.38,0,0,0,297.28,187.79Z"/><path class="cls-3" d="M313.94,175.24h2.38v19h-2.38Z"/><path class="cls-3" d="M322.35,187.79c0-2.46,1.5-4.84,4.06-4.84s4,2.38,4,4.84c0,2.31-1.24,4.84-4,4.84S322.35,190.09,322.35,187.79Zm-2.53,0a6.58,6.58,0,1,0,13.16,0c0-3.93-2.64-6.77-6.57-6.77A6.38,6.38,0,0,0,319.82,187.79Z"/><path class="cls-3" d="M341.45,192.33c-2.23,0-3.6-2.13-3.6-4.56,0-2.21,1.19-4.82,3.6-4.82s3.78,2.31,3.78,5C345.23,190.35,343.68,192.33,341.45,192.33Zm6.16-11h-2.2v1.93h-.05c-.71-1.39-2-2.23-4.26-2.23-3.91,0-5.78,3.55-5.78,6.87s1.83,6.36,5.53,6.36a5.39,5.39,0,0,0,4.34-2h0v1.27c0,2.74-1.49,4.44-4,4.44a9.85,9.85,0,0,1-4.67-1.17L336.3,199a13.07,13.07,0,0,0,4.64.89c4.64,0,6.67-2.26,6.67-6.19Z"/><path class="cls-3" d="M350.7,197.75a3.65,3.65,0,0,0,1.12.2c2.13,0,2.84-2.94,2.84-3.2a7.12,7.12,0,0,0-.46-1.37l-4.39-12.07h2.61L355.9,192H356l3.55-10.7h2.41l-4.77,13.21c-.89,2.48-1.83,5.35-5,5.35a7.87,7.87,0,0,1-1.62-.18Z"/><path class="cls-3" d="M371.62,176.55h2.54v17.7h-2.54Z"/><path class="cls-3" d="M378.44,181.32h2.31v2.05h.05A4.65,4.65,0,0,1,385,181c3.35,0,4.84,2.08,4.84,5.55v7.68h-2.38v-6.69c0-3-.66-4.49-2.74-4.61-2.71,0-3.93,2.18-3.93,5.32v6h-2.38Z"/><path class="cls-3" d="M402.15,183.5a6.91,6.91,0,0,0-2.59-.56c-2.66,0-4.16,2.38-4.16,4.84,0,2.31,1.24,4.84,4.31,4.84a5,5,0,0,0,2.56-.74l.18,2.13a7.28,7.28,0,0,1-3,.53,6.54,6.54,0,0,1-6.59-6.77,6.38,6.38,0,0,1,6.59-6.77,8.93,8.93,0,0,1,2.89.51Z"/><path class="cls-3" d="M405.27,191.41h2.84v2.84h-2.84Z"/></svg>