<svg xmlns="http://www.w3.org/2000/svg" viewBox="0 0 556 92.14"><title>Asset 1</title><g id="Layer_2" data-name="Layer 2"><g id="レイヤー_1" data-name="レイヤー 1"><path d="M271.29,38.65H199.87a2.82,2.82,0,0,0-2.65,2.25l-2.64,14.37a1.83,1.83,0,0,0,1.84,2.25h71.43a2.81,2.81,0,0,0,2.64-2.25l2.64-14.37A1.82,1.82,0,0,0,271.29,38.65Z"/><path d="M452.83,38.65H381.4a2.83,2.83,0,0,0-2.65,2.25l-2.64,14.37A1.83,1.83,0,0,0,378,57.52h71.43A2.83,2.83,0,0,0,452,55.27l2.64-14.37A1.83,1.83,0,0,0,452.83,38.65Z"/><path d="M542.55,1.67h-7a1.21,1.21,0,0,0-1.14,1l-2.66,14.54a.78.78,0,0,0,.79,1h7a1.21,1.21,0,0,0,1.14-1l2.65-14.54A.79.79,0,0,0,542.55,1.67Z"/><path d="M555.19,1.67h-7a1.21,1.21,0,0,0-1.14,1l-2.66,14.54a.78.78,0,0,0,.79,1h7a1.21,1.21,0,0,0,1.14-1L556,2.64A.79.79,0,0,0,555.19,1.67Z"/><path d="M118,43.45H103.23a2.81,2.81,0,0,0-2.64,2.24l-7.1,39.16a1.83,1.83,0,0,0,1.84,2.24h14.81a2.81,2.81,0,0,0,2.65-2.24l7.09-39.16A1.83,1.83,0,0,0,118,43.45Z"/><path d="M181.5,43.45H166.69A2.83,2.83,0,0,0,164,45.69L157,84.85a1.83,1.83,0,0,0,1.84,2.24H173.6a2.81,2.81,0,0,0,2.65-2.24l7.09-39.16A1.83,1.83,0,0,0,181.5,43.45Z"/><path d="M550.13,90.5,518.38,53.79c5.81-5.79,10-9.95,10.15-10.09.53-.5,1.68-2.74-.92-2.74H503.82a4.3,4.3,0,0,0-3.67,1.49L453.73,90.5c-.78.82-.42,1.49.82,1.49h23.34a5.82,5.82,0,0,0,3.67-1.49L504.17,68,523.66,90.5A5,5,0,0,0,527.12,92h22C550.34,92,550.81,91.32,550.13,90.5Z"/><path d="M546.27,22.08H529.94a1.83,1.83,0,0,1-1.84-2.24l1.16-6.35a1.83,1.83,0,0,0-1.84-2.24H466.15a2.81,2.81,0,0,0-2.65,2.24L460.63,29a1.84,1.84,0,0,0,1.85,2.25h82.13A2.81,2.81,0,0,0,547.26,29l.85-4.67A1.82,1.82,0,0,0,546.27,22.08Z"/><path d="M369.07,14.92H311l1.54-8.58a1.83,1.83,0,0,0-1.84-2.24H294.57a2.81,2.81,0,0,0-2.65,2.24l-8.8,48.92A1.83,1.83,0,0,0,285,57.5h16.16a2.83,2.83,0,0,0,2.65-2.24L307.24,36a2.81,2.81,0,0,1,2.55-2.17h35.29A1.81,1.81,0,0,1,346.85,36l-.9,5a2.81,2.81,0,0,1-2.64,2.24H319.5a2.82,2.82,0,0,0-2.65,2.25l-2.47,13.24A1.82,1.82,0,0,0,316.22,61h23.87a1.83,1.83,0,0,1,1.84,2.24l-1.34,7.42A2.82,2.82,0,0,1,338,72.9H313.13a2.81,2.81,0,0,0-2.65,2.24l-2.69,14.6A1.83,1.83,0,0,0,309.63,92h45.5a2.81,2.81,0,0,0,2.65-2.24l13.13-72.58A1.83,1.83,0,0,0,369.07,14.92Z"/><path d="M73.74,43.25H57.59a2.81,2.81,0,0,0-2.65,2.25L50.41,70.62a2.81,2.81,0,0,1-2.55,2.23H29.09a2.81,2.81,0,0,0-2.65,2.25L23.71,89.68a1.84,1.84,0,0,0,1.85,2.25H65a2.81,2.81,0,0,0,2.64-2.25l8-44.18A1.82,1.82,0,0,0,73.74,43.25Z"/><path d="M88.28,14.92H83a1.83,1.83,0,0,1-1.84-2.25l1.15-6.33A1.83,1.83,0,0,0,80.42,4.1H63.37a2.81,2.81,0,0,0-2.65,2.24l-1.16,6.34a2.82,2.82,0,0,1-2.65,2.24H40.18a1.83,1.83,0,0,1-1.84-2.25l1.14-6.33A1.83,1.83,0,0,0,37.64,4.1H21.48a2.82,2.82,0,0,0-2.65,2.24l-1.14,6.34a2.81,2.81,0,0,1-2.64,2.24H5.32a2.81,2.81,0,0,0-2.64,2.25L0,31.54a1.82,1.82,0,0,0,1.84,2.25h9.8A1.82,1.82,0,0,1,13.49,36L10,55.26a1.82,1.82,0,0,0,1.84,2.24H28a2.81,2.81,0,0,0,2.65-2.24L34.14,36a2.82,2.82,0,0,1,2.57-2.22H84.83a2.82,2.82,0,0,0,2.65-2.25l2.64-14.37A1.83,1.83,0,0,0,88.28,14.92Z"/><path d="M185.29,25.77a14.59,14.59,0,0,1-14.1-10.85h-9.83a1.83,1.83,0,0,1-1.84-2.2l1.14-6.38a1.83,1.83,0,0,0-1.84-2.24H140a2.81,2.81,0,0,0-2.65,2.24l-1.13,6.34a2.82,2.82,0,0,1-2.65,2.24H105.4a2.83,2.83,0,0,0-2.65,2.25l-2.64,14.37A1.83,1.83,0,0,0,102,33.79h28.22A1.82,1.82,0,0,1,132,36l-9.6,53.85a1.83,1.83,0,0,0,1.84,2.25H143.1a2.83,2.83,0,0,0,2.65-2.25L155.36,36A2.81,2.81,0,0,1,158,33.79h26.93a2.83,2.83,0,0,0,2.65-2.25l1.13-6.18A14.65,14.65,0,0,1,185.29,25.77Z"/><path d="M185.29,0a11.18,11.18,0,1,0,11.17,11.18A11.17,11.17,0,0,0,185.29,0Zm0,16.8a5.63,5.63,0,1,1,5.62-5.62A5.63,5.63,0,0,1,185.29,16.8Z"/></g></g></svg>