<svg xmlns="http://www.w3.org/2000/svg" viewBox="0 0 1160.71 224.62"><defs><style>.cls-1{fill:#9b6328;}.cls-2{fill:none;}.cls-3{fill:#948f7f;}.cls-4{fill:#26b7bc;}.cls-5{fill:#e60019;}.cls-6{fill:#fabe00;}.cls-7{fill:#8cc220;}</style></defs><title>アセット 2</title><g id="レイヤー_2" data-name="レイヤー 2"><g id="レイヤー_1-2" data-name="レイヤー 1"><path d="M451.2,65.75H421.28V174.5H389.19V65.75H359.27V52H451.2Z"/><path d="M516.14,128.7H472.52q0,20.73,2.05,26.41t8.58,5.68c2.93,0,5.11-.71,6.54-2.15s2.15-3.93,2.15-7.51h21.5q0,12.44-8.23,18.37t-25.41,5.94q-19,0-28.83-12.08t-9.82-36q0-23.78,10.18-35.86T481.9,79.46q17.64,0,25.94,9.65t8.3,29.05Zm-24.92-13.4q0-12.18-1.67-16.69t-7.68-4.5q-5.75,0-7.5,4t-1.76,17.2Z"/><path d="M601.41,107.51H574.92q0-8.48-1.6-10.93c-1.07-1.65-2.87-2.47-5.37-2.47q-6.33,0-7.93,7.2t-1.61,26.14q0,21.66,1.83,27.5t8,5.84q3.83,0,5.7-1.8c1.25-1.19,2.08-3.82,2.51-7.86h22.44q0,12.39-8.38,18.35t-25.12,6q-18.92,0-28.7-12.08t-9.78-36q0-23.78,10.16-35.86t30.6-12.08q16.29,0,25,7T601.41,107.51Z"/><path d="M691.94,174.5H661.72V102.77c0-2.77-.86-4.8-2.56-6.1s-4.18-1.94-7.4-1.94a36.71,36.71,0,0,0-5,.39,23.84,23.84,0,0,0-4.64,1V174.5H611.86V52h30.23V83.72a28.06,28.06,0,0,1,8.82-3.24,58.36,58.36,0,0,1,11.45-1q14.08,0,21.83,5.86t7.75,16.6Z"/><path d="M800.68,133.61q0,21-11.57,30.95t-36.42,9.94H711.88V52H756q17.1,0,27,6.24t9.92,17.5q0,10.69-5.75,16.6T769.49,99.8q14.85,2.25,23,11.07T800.68,133.61ZM764.54,78.82q0-6.88-4.42-10.13t-13.71-3.25H744V93.8h2.72c5.83,0,10.25-1.34,13.29-4S764.54,83.47,764.54,78.82Zm4.36,53.41q0-12.93-5.09-18.82t-16.7-5.9H744v53.28h2.76q12.75,0,17.46-6.55T768.9,132.23Z"/><path d="M890.78,127.4q0,25.11-10,36.57t-30.37,11.47q-19.94,0-30-12.08t-10.06-36q0-24.63,9.78-36.28t30.27-11.66q21.63,0,31,11.75T890.78,127.4Zm-31.47.1q0-22.48-1.44-27.93t-7.28-5.46q-5.76,0-7.25,5.69t-1.48,28q0,21.91,1.58,27.47t7.15,5.54q5.28,0,7-5.92T859.31,127.5Z"/><path d="M1033.11,133.5a23.45,23.45,0,0,1-1.49,9.09,20.88,20.88,0,0,1-5,6.84L1000.4,174.5H986.06L968,158.1l-17.44,16.4h-14L903.8,144.81V80.71H934v65.61L946.9,159l6.45-7-.09-71.26h30.31v65.61L996.68,159l6.21-7V80.71h30.22Z"/><path d="M1093.42,174.5h-18.84q-11.11,0-16.86-4.72T1052,155.63V52h30.22V154.48q0,3.86,2.27,5.55c1.51,1.13,4.5,1.7,9,1.7Z"/><path class="cls-1" d="M1150.41,50.9v41h-7.26V51s-3.41-4.11-8.62,0V91.86h-7.23v-41c-3.87-3.79-8.7,0-8.7,0L1117,98c0,11,4.3,16.93,8.29,20v57.37h27.13V118c4-3.1,8.29-9,8.29-20l-1.59-47.1S1154.28,47.11,1150.41,50.9Z"/><path class="cls-2" d="M290,177.18a16.21,16.21,0,1,0,0-32.42H278.51a134.24,134.24,0,0,1-20.42,32.42Z"/><path class="cls-2" d="M290,130a16.22,16.22,0,1,0,0-32.43h-.07A133.21,133.21,0,0,1,284.09,130Z"/><path class="cls-3" d="M282.66,130.18H284a1.21,1.21,0,0,0,0-.18h-1.43Z"/><path class="cls-3" d="M309.71,137.38A30.78,30.78,0,0,0,290,83h-7.29V83H275.5v7.3A119.7,119.7,0,0,1,36.3,97.25h20V82.67H0V97.25H21.68c3.61,70.84,62.38,127.37,134.11,127.37a133.69,133.69,0,0,0,87.91-32.9v0H290a30.77,30.77,0,0,0,19.76-54.38ZM290,177.18H258.09a134.24,134.24,0,0,0,20.42-32.42H290a16.21,16.21,0,1,1,0,32.42ZM290,130h-5.86a1.21,1.21,0,0,1,0,.18c-.42,1.37-.91,2.72-1.38,4.08V130h1.43a133.21,133.21,0,0,0,5.79-32.43H290A16.22,16.22,0,1,1,290,130Z"/><path class="cls-3" d="M282.66,130.18v4.08c.47-1.36,1-2.71,1.38-4.08h-1.38Z"/><path class="cls-4" d="M244.63,83.36c-.09-1.52-.22-3-.38-4.54A13.38,13.38,0,0,1,237.32,53,89.22,89.22,0,0,0,227.24,35.7a13.38,13.38,0,0,1-19-18.76A88.78,88.78,0,0,0,191.1,7.12,13.39,13.39,0,0,1,165,2.92a12.85,12.85,0,0,1,.26-2.56C163.68.2,162.09.08,160.5,0V83.36Z"/><path class="cls-5" d="M69.74,79.07a13.48,13.48,0,0,1-2.12-.18c-.17,1.48-.29,3-.38,4.47h84.51V0c-2,.09-3.9.23-5.82.45a13.32,13.32,0,0,1,.24,2.46,13.38,13.38,0,0,1-26,4.47,88.73,88.73,0,0,0-17,9.86,13.39,13.39,0,0,1-18.8,18.82,88.88,88.88,0,0,0-9.87,17.09,13.39,13.39,0,0,1-4.75,25.91Z"/><path class="cls-6" d="M67.15,92.11c.09,2.22.23,4.43.48,6.61a13,13,0,0,1,2.67-.27,13.39,13.39,0,0,1,4.27,26.08,88.15,88.15,0,0,0,9.88,17,13.38,13.38,0,0,1,18.91,18.85A88.06,88.06,0,0,0,120,170a13.39,13.39,0,0,1,25.83,7c2,.22,3.94.36,5.93.46V92.11Z"/><path class="cls-7" d="M160.5,177.52c1.63-.09,3.26-.21,4.87-.38A13.77,13.77,0,0,1,165,174a13.39,13.39,0,0,1,26.26-3.71,88.91,88.91,0,0,0,17.17-9.85,13.38,13.38,0,0,1,18.94-18.83,89,89,0,0,0,9.88-17,13.4,13.4,0,0,1,3.9-26.21,13.61,13.61,0,0,1,3.09.37c.25-2.21.39-4.45.48-6.71H160.5Z"/><path class="cls-5" d="M83.76,31.12a13,13,0,1,0-13-13A13,13,0,0,0,83.76,31.12Z"/><path class="cls-4" d="M240.47,18.09a13,13,0,1,0-13,13A13,13,0,0,0,240.47,18.09Z"/><path class="cls-6" d="M83.76,146.13a13,13,0,1,0,13,13A13,13,0,0,0,83.76,146.13Z"/><path class="cls-7" d="M227.44,146.13a13,13,0,1,0,13,13A13,13,0,0,0,227.44,146.13Z"/></g></g></svg>